<!DOCTYPE svg PUBLIC "-//W3C//DTD SVG 20010904//EN" "http://www.w3.org/TR/2001/REC-SVG-20010904/DTD/svg10.dtd">
<svg version="1.0" xmlns="http://www.w3.org/2000/svg" width="680px" height="694px" viewBox="0 0 6800 6940" preserveAspectRatio="xMidYMid meet">
<g id="layer101" fill="#001c4e" stroke="none">
 <path d="M2875 5840 c-7 -11 3 -16 50 -23 17 -3 50 -11 75 -17 25 -7 55 -14 68 -16 12 -2 34 -6 50 -9 15 -3 38 -7 52 -9 14 -2 25 -4 25 -6 0 -1 21 -3 47 -5 26 -2 56 -9 67 -15 11 -5 31 -10 45 -10 23 0 25 -3 20 -29 -4 -16 -1 -32 5 -35 6 -4 11 -27 11 -52 0 -34 -4 -46 -17 -50 -10 -3 -54 -22 -98 -43 l-80 -38 -24 -69 -24 -69 -38 3 c-43 4 -89 -18 -89 -43 0 -8 -9 -19 -20 -25 -11 -6 -20 -17 -20 -25 0 -8 -9 -19 -20 -25 -11 -6 -20 -17 -20 -25 0 -8 -16 -27 -35 -42 -19 -15 -35 -33 -35 -38 0 -6 -9 -16 -20 -23 -11 -7 -20 -18 -20 -25 0 -7 -9 -18 -20 -25 -11 -7 -20 -18 -20 -26 0 -7 -9 -21 -20 -31 -25 -22 -26 -70 -4 -115 l17 -32 66 69 c36 38 77 84 91 103 29 40 111 120 123 120 7 0 30 20 123 105 42 39 43 41 46 112 2 40 6 73 10 73 4 0 31 11 60 24 96 43 110 43 215 -5 24 -10 46 -19 50 -19 5 0 6 -29 5 -65 -4 -62 -2 -66 30 -96 18 -17 56 -53 84 -80 28 -27 56 -49 62 -49 6 0 23 -16 38 -35 14 -19 38 -41 52 -48 15 -6 29 -21 32 -33 8 -34 157 -191 169 -179 6 6 14 38 17 72 l7 61 -58 68 c-32 38 -64 73 -72 77 -7 4 -13 14 -13 22 0 8 -9 20 -20 27 -11 7 -20 18 -20 25 0 7 -9 18 -20 25 -11 7 -20 18 -20 25 0 7 -9 18 -20 25 -11 7 -20 18 -20 24 0 6 -11 21 -24 33 -19 18 -33 22 -65 19 l-41 -4 -20 56 c-12 30 -22 60 -24 65 -2 6 -45 31 -95 55 -101 50 -100 48 -85 164 5 37 11 46 26 46 11 0 28 5 39 10 11 6 39 12 62 13 23 2 48 6 55 11 6 4 16 5 20 2 4 -3 26 0 48 5 43 11 72 17 106 23 46 8 82 26 71 37 -6 6 -51 5 -134 -4 -68 -8 -137 -14 -154 -14 -16 0 -65 -4 -108 -10 -43 -5 -106 -6 -140 -1 -34 4 -102 10 -152 13 -49 3 -108 10 -129 16 -59 16 -173 22 -181 9z"/>
 <path d="M1090 5288 c-13 -31 -30 -55 -62 -91 -15 -17 -40 -55 -55 -84 -14 -30 -32 -58 -40 -64 -7 -7 -13 -18 -13 -25 0 -8 -5 -14 -11 -14 -5 0 -16 -15 -24 -32 -8 -18 -32 -60 -54 -93 -36 -53 -40 -64 -35 -105 3 -24 10 -50 15 -56 5 -7 12 -28 14 -48 3 -20 9 -44 14 -54 5 -9 14 -37 21 -62 7 -25 16 -53 21 -63 5 -10 7 -22 4 -27 -3 -5 -1 -11 5 -15 5 -3 10 -21 10 -40 0 -19 5 -37 10 -40 6 -3 10 -19 10 -34 0 -15 3 -31 7 -35 8 -8 33 -76 33 -92 0 -6 -12 -17 -27 -25 -16 -7 -49 -29 -74 -49 -26 -19 -55 -40 -64 -45 -15 -9 -17 -26 -16 -125 3 -189 15 -600 25 -816 1 -29 13 -58 39 -98 20 -30 37 -58 37 -60 0 -3 17 -31 38 -63 55 -87 60 -95 81 -134 11 -19 27 -41 35 -48 9 -8 16 -19 16 -26 0 -6 9 -20 20 -30 11 -10 20 -22 20 -27 0 -5 29 -54 65 -108 36 -54 65 -101 65 -104 0 -11 64 -106 71 -106 5 0 9 -4 9 -10 0 -5 15 -31 34 -57 18 -27 37 -58 40 -69 9 -29 538 -562 598 -602 26 -18 49 -32 53 -32 10 0 91 -57 121 -85 15 -14 33 -25 39 -25 7 0 15 -7 19 -15 3 -8 12 -15 20 -15 7 0 16 -7 20 -15 3 -8 11 -15 17 -15 7 0 17 -7 24 -17 17 -22 38 -8 25 17 -6 10 -9 34 -8 52 2 33 -9 136 -18 173 -6 23 90 -74 148 -149 20 -27 46 -55 58 -63 11 -8 20 -19 20 -25 0 -11 24 -40 88 -104 17 -18 32 -37 32 -43 0 -5 8 -16 18 -23 11 -7 21 -18 23 -24 2 -7 25 -36 51 -65 25 -30 55 -65 67 -79 17 -22 22 -24 41 -12 12 7 24 11 26 9 3 -3 22 0 42 5 20 5 59 11 87 14 27 3 54 9 60 13 5 5 27 9 48 9 21 1 41 3 45 6 4 2 9 -30 10 -72 1 -42 5 -84 7 -93 5 -14 -2 -16 -52 -12 -32 2 -82 8 -112 13 -29 6 -70 7 -91 4 -23 -4 -40 -2 -44 5 -5 7 -45 11 -110 11 -56 0 -106 4 -112 9 -5 5 -45 11 -89 13 -66 2 -80 0 -80 -12 0 -10 17 -19 48 -27 27 -6 54 -16 60 -21 7 -5 26 -12 42 -16 17 -4 37 -13 45 -21 8 -7 33 -18 55 -25 22 -6 54 -18 72 -26 17 -8 35 -14 40 -14 5 0 26 -9 48 -20 22 -11 46 -20 55 -20 9 0 21 -5 27 -11 20 -20 139 -12 184 12 11 6 23 8 26 5 3 -3 14 -1 24 4 10 6 30 12 46 14 15 2 35 6 43 9 36 14 107 23 125 16 11 -3 43 -11 70 -17 28 -5 82 -19 122 -30 40 -11 74 -18 76 -16 2 2 20 -2 39 -10 32 -14 39 -14 74 4 21 11 44 20 52 20 8 0 29 7 48 15 19 8 49 22 68 30 19 8 40 15 48 15 7 0 22 7 32 15 11 8 28 15 38 15 11 0 38 9 60 20 23 11 48 20 55 20 7 0 31 10 53 21 36 19 40 24 27 36 -12 13 -24 13 -71 3 -31 -6 -94 -12 -139 -12 -45 0 -88 -4 -94 -10 -7 -6 -30 -8 -51 -5 -20 3 -93 0 -162 -7 -69 -7 -128 -11 -132 -9 -9 5 -8 117 1 153 7 28 26 36 47 19 7 -6 18 -8 24 -4 6 4 16 2 23 -3 7 -6 30 -13 52 -16 53 -6 84 -12 120 -23 17 -4 37 -8 45 -8 18 0 80 43 80 55 0 4 16 25 36 47 20 21 49 52 63 68 131 146 171 193 171 202 0 5 13 19 30 31 16 13 30 28 30 34 0 6 15 26 33 43 17 17 49 50 69 74 l38 44 -4 -59 c-1 -32 -6 -67 -10 -76 -5 -10 -6 -25 -2 -33 3 -8 1 -26 -4 -39 -6 -18 -5 -28 5 -36 11 -9 24 -5 59 19 24 17 50 31 56 31 6 0 13 7 16 15 4 8 12 15 20 15 7 0 29 13 47 30 19 16 39 30 44 30 6 0 22 11 37 25 33 31 112 85 123 85 5 0 114 106 243 235 128 129 237 235 241 235 5 0 26 30 48 68 21 37 61 97 88 134 26 36 61 88 76 115 15 26 50 80 77 118 27 39 49 74 49 79 1 5 18 32 39 60 42 57 53 75 81 127 11 19 36 55 55 78 20 24 36 47 36 53 0 5 18 36 40 68 l41 57 13 294 c7 162 14 303 14 314 0 63 13 287 18 327 6 46 5 47 -35 72 -22 14 -45 26 -51 26 -5 0 -10 5 -10 11 0 5 -15 16 -33 24 -52 22 -61 37 -46 82 7 21 17 42 21 47 4 6 8 20 8 32 0 12 7 35 15 50 8 16 15 38 15 49 0 11 7 43 16 70 9 28 19 57 22 65 2 8 6 25 8 38 1 12 10 36 18 54 9 17 16 41 16 54 0 13 5 26 10 29 6 4 8 10 5 15 -2 4 0 21 6 38 9 27 6 35 -30 87 -23 32 -41 63 -41 69 -1 6 -14 27 -30 46 -17 19 -30 40 -30 47 0 7 -8 21 -17 31 -23 23 -73 99 -73 111 0 4 -19 34 -42 65 l-42 56 -26 -25 c-14 -14 -31 -25 -37 -25 -6 0 -26 -17 -44 -37 -17 -21 -40 -42 -49 -48 -33 -19 -230 -210 -236 -228 -5 -17 15 -94 41 -152 7 -16 19 -52 26 -80 6 -27 16 -54 20 -59 5 -6 9 -19 9 -30 0 -13 71 -93 190 -216 l189 -195 1 -417 c0 -451 3 -423 -54 -553 -7 -16 -19 -46 -26 -65 -7 -19 -19 -49 -26 -67 -8 -17 -14 -36 -14 -43 0 -14 -36 -103 -61 -151 -10 -20 -19 -45 -19 -55 0 -11 -7 -32 -15 -48 -8 -15 -15 -33 -15 -40 0 -6 -7 -24 -16 -41 -9 -16 -23 -52 -31 -78 -17 -58 -44 -87 -80 -87 -16 0 -41 -7 -57 -15 -50 -26 -51 -19 -11 70 8 16 26 71 41 120 15 50 31 94 35 99 5 6 9 18 9 29 0 10 9 38 20 63 11 24 23 59 27 77 3 17 9 37 14 42 10 14 10 317 0 330 -5 5 -11 132 -15 280 -12 585 -18 673 -44 681 -21 7 -69 29 -102 47 -14 8 -47 24 -75 37 -27 13 -57 27 -65 32 -8 4 -22 11 -30 14 -8 3 -22 10 -30 15 -8 5 -30 16 -49 25 -32 14 -35 14 -53 -3 -18 -19 -18 -20 5 -54 12 -19 38 -65 57 -104 19 -38 36 -73 38 -77 2 -5 -27 -8 -65 -8 -37 0 -115 -4 -173 -10 -58 -5 -150 -11 -204 -14 -55 -3 -104 -10 -110 -16 -21 -21 10 -44 85 -62 90 -21 220 -58 234 -66 5 -3 16 -7 25 -8 13 -2 71 -19 228 -65 26 -8 42 -19 42 -29 0 -9 7 -43 16 -75 14 -51 24 -110 49 -270 3 -16 8 -41 12 -55 4 -14 7 -32 8 -40 1 -8 8 -42 15 -75 8 -33 13 -66 11 -73 -1 -7 5 -15 12 -18 11 -4 13 -12 7 -32 -5 -15 -13 -43 -19 -62 -5 -19 -15 -65 -21 -101 -5 -36 -19 -94 -30 -128 -40 -125 -41 -176 -12 -336 24 -125 37 -176 55 -210 6 -11 13 -95 15 -189 l4 -168 -23 7 c-13 4 -44 18 -69 30 -69 35 -239 113 -305 140 -27 11 -145 66 -153 71 -5 3 66 113 95 148 13 16 35 50 49 75 41 76 64 114 93 151 36 45 63 98 53 103 -4 3 -63 6 -133 6 -109 2 -127 0 -141 -16 -13 -14 -17 -55 -23 -200 -4 -101 -11 -183 -14 -183 -9 0 -27 35 -37 70 -3 14 -12 32 -19 40 -7 8 -16 28 -19 45 -4 16 -13 36 -19 44 -7 8 -16 28 -22 45 l-10 31 -150 0 -150 0 3 -39 c2 -21 0 -46 -3 -54 -3 -9 -8 -54 -11 -101 -3 -47 -7 -104 -9 -126 -2 -22 -5 -56 -6 -77 -1 -21 -7 -34 -13 -32 -21 8 -477 -13 -487 -23 -9 -9 59 -73 79 -73 5 0 17 -9 27 -20 10 -11 22 -20 26 -20 5 0 49 -27 99 -60 76 -51 93 -59 110 -50 11 6 20 14 20 19 0 4 21 33 48 63 95 111 117 139 122 153 3 7 29 43 59 79 44 53 57 63 71 56 10 -5 42 -14 71 -19 62 -11 182 -41 187 -46 2 -2 -4 -19 -13 -37 -9 -18 -28 -67 -42 -108 -32 -98 -71 -198 -89 -232 -8 -14 -14 -31 -14 -38 0 -10 -31 -96 -60 -165 -4 -11 -13 -35 -20 -52 -14 -38 -14 -38 -70 -18 -23 8 -51 15 -61 15 -10 0 -30 5 -46 11 -15 7 -38 13 -50 15 -22 3 -167 41 -193 51 -52 20 -120 20 -135 0 -6 -8 -25 -23 -41 -34 -17 -10 -72 -46 -122 -81 -50 -34 -96 -62 -102 -62 -6 0 -13 -7 -16 -15 -4 -8 -11 -15 -17 -15 -6 0 -21 -9 -33 -21 l-21 -20 -36 24 c-19 13 -50 29 -68 37 -19 7 -47 18 -63 25 -32 14 -81 0 -175 -53 l-55 -31 -30 22 c-17 12 -33 25 -34 29 -2 5 -18 15 -35 22 -18 7 -49 30 -70 50 -21 20 -43 36 -48 36 -14 0 -98 57 -135 92 -31 29 -31 29 -75 13 -24 -8 -70 -18 -102 -22 -32 -3 -60 -10 -63 -14 -3 -5 -18 -9 -34 -9 -16 0 -31 -4 -34 -9 -4 -5 -30 -12 -59 -16 -28 -4 -76 -16 -105 -27 -58 -22 -82 -19 -82 10 0 10 -5 23 -11 29 -5 5 -11 21 -13 34 -2 13 -8 35 -13 49 -6 14 -17 45 -26 70 -8 25 -21 59 -27 75 -7 17 -18 44 -25 60 -30 72 -46 122 -43 131 2 6 -4 26 -13 45 -9 18 -21 45 -27 59 -5 14 -15 38 -21 53 -6 15 -11 30 -11 32 0 5 76 27 108 31 40 4 126 26 145 36 19 10 47 -5 47 -25 0 -5 15 -27 33 -47 56 -65 76 -90 99 -123 12 -18 32 -43 45 -56 13 -13 23 -29 23 -35 1 -6 20 -33 44 -59 l42 -49 65 45 c35 25 87 57 114 72 28 15 67 40 87 56 20 16 41 29 46 29 5 0 15 6 21 14 23 28 -13 35 -185 39 -93 3 -176 7 -184 11 -8 3 -42 7 -75 8 l-60 3 -2 95 c0 52 -4 136 -8 185 -4 50 -8 101 -8 115 -2 25 -3 25 -135 33 -73 5 -139 6 -148 3 -8 -3 -19 -18 -25 -33 -6 -15 -21 -50 -34 -78 -59 -130 -81 -170 -90 -168 -5 2 -10 74 -12 165 -1 90 -6 177 -11 193 l-8 30 -135 5 c-74 3 -138 2 -143 -2 -5 -3 17 -42 48 -86 31 -44 56 -85 56 -90 0 -6 10 -23 23 -39 20 -26 31 -44 62 -98 47 -85 78 -135 90 -145 20 -17 19 -30 -3 -30 -10 0 -27 -7 -38 -15 -10 -8 -27 -15 -36 -15 -10 0 -39 -11 -65 -24 -126 -63 -323 -150 -367 -160 l-28 -7 3 164 c3 112 8 169 17 179 6 8 14 28 16 44 3 16 10 47 16 69 14 55 29 123 35 164 3 18 10 41 15 51 6 10 8 25 6 32 -3 7 -7 29 -10 48 -2 19 -12 61 -20 93 -9 32 -16 68 -16 81 0 13 -6 46 -14 72 -32 110 -48 204 -37 218 10 11 25 89 38 191 3 22 10 45 15 52 5 7 7 17 3 22 -3 6 -1 20 5 32 11 19 43 177 57 276 6 49 24 60 143 88 41 9 83 21 92 26 10 5 28 9 41 9 13 0 27 4 33 9 5 5 47 16 93 25 47 9 90 21 97 27 7 6 17 8 22 5 5 -3 21 2 36 9 16 8 31 13 36 10 13 -8 43 22 38 37 -7 18 -62 27 -198 34 -52 3 -120 9 -150 13 -30 5 -89 10 -130 10 -41 1 -75 3 -77 4 -4 5 37 83 77 146 22 34 40 66 40 70 0 5 -8 15 -18 24 -17 16 -24 14 -103 -25 -46 -23 -91 -43 -99 -43 -14 -2 -77 -33 -110 -55 -8 -6 -36 -19 -62 -31 -54 -23 -50 -10 -55 -184 -4 -192 -19 -460 -26 -475 -3 -8 -9 -82 -11 -165 -3 -82 -10 -217 -16 -298 -9 -139 -8 -152 10 -192 11 -24 20 -57 20 -72 0 -15 7 -37 15 -47 8 -11 15 -30 15 -42 0 -13 5 -26 10 -29 6 -3 10 -17 10 -30 0 -13 4 -26 8 -29 4 -3 19 -40 31 -83 13 -43 30 -95 37 -116 19 -50 19 -49 -23 -41 -72 13 -101 30 -122 75 -12 24 -21 48 -21 54 0 5 -9 27 -20 48 -11 20 -19 40 -18 44 1 9 -7 32 -33 89 -11 22 -19 52 -19 67 0 14 -4 28 -9 31 -4 3 -11 19 -14 34 -3 16 -17 54 -32 85 -14 31 -28 70 -32 87 -3 17 -10 33 -14 36 -5 3 -9 12 -9 20 0 8 -9 33 -19 57 -10 23 -24 57 -30 76 -12 38 -15 570 -4 759 l6 112 82 83 c45 45 124 124 177 176 89 87 148 170 148 207 0 21 49 163 64 189 35 56 33 60 -80 165 -27 25 -103 96 -168 158 -66 61 -123 112 -128 112 -5 0 -13 -10 -18 -22z m1420 -3655 c30 -1 64 -2 75 -3 11 0 52 -6 90 -14 39 -8 79 -14 90 -14 41 -1 231 -23 271 -32 23 -5 58 -7 78 -3 l36 6 2 -54 c1 -30 1 -63 0 -74 -1 -11 -4 -81 -8 -155 -3 -74 -7 -137 -9 -138 -5 -6 -99 60 -108 75 -4 7 -13 13 -20 13 -7 1 -28 14 -47 30 -19 17 -38 30 -43 30 -5 0 -29 15 -54 33 -58 41 -95 65 -112 73 -7 4 -25 18 -39 30 -14 13 -30 24 -36 24 -6 0 -16 8 -22 18 -6 9 -31 27 -56 40 -25 12 -51 29 -58 37 -7 8 -17 15 -22 15 -19 0 -109 68 -96 73 7 2 18 2 23 -2 6 -3 35 -7 65 -8z m1822 -18 c-17 -14 -34 -25 -39 -25 -6 0 -18 -9 -27 -19 -10 -11 -32 -26 -50 -35 -17 -8 -65 -40 -106 -70 -41 -31 -93 -64 -115 -75 -22 -10 -74 -44 -115 -75 -41 -30 -89 -63 -107 -71 -18 -9 -52 -30 -75 -48 -76 -58 -72 -63 -78 112 -2 86 -5 179 -5 206 l0 50 35 -1 c19 0 91 5 160 13 69 8 154 16 190 18 36 3 85 9 110 15 25 5 83 12 129 14 46 3 86 7 89 10 3 3 12 6 19 6 8 0 2 -11 -15 -25z"/>
 <path d="M2648 3503 c0 -5 -2 -12 -3 -18 -3 -14 -23 -66 -37 -92 -8 -16 -21 -23 -42 -24 -17 -1 -71 -3 -120 -5 -88 -3 -89 -3 -147 -48 -33 -25 -62 -46 -67 -46 -4 -1 -24 -17 -44 -38 -38 -37 -38 -38 -42 -137 -3 -55 -5 -103 -6 -107 0 -4 -26 -23 -59 -42 -68 -42 -87 -61 -71 -71 6 -4 60 -11 118 -16 59 -5 123 -11 142 -13 32 -4 89 15 140 45 16 10 80 39 143 66 23 10 43 28 52 47 8 17 30 48 49 70 19 21 42 53 51 72 8 18 32 54 51 80 37 48 94 137 94 147 0 5 -34 28 -105 70 -16 11 -41 30 -56 43 -26 25 -38 30 -41 17z m-72 -266 c59 -89 60 -96 21 -148 -18 -24 -40 -56 -49 -70 -23 -37 -137 -90 -180 -85 -73 10 -87 18 -122 71 -32 47 -34 56 -26 86 6 19 10 46 10 61 0 20 10 35 37 55 20 15 49 40 63 55 27 27 47 31 165 36 39 2 41 -1 81 -61z"/>
 <path d="M2428 3140 c-7 -11 -17 -20 -23 -20 -21 -1 -75 -79 -75 -108 0 -38 18 -53 68 -55 78 -3 144 82 111 145 -30 59 -60 72 -81 38z"/>
 <path d="M4089 3472 c-14 -9 -46 -32 -70 -50 -24 -19 -55 -38 -68 -43 -22 -9 -23 -11 -7 -28 9 -9 16 -21 16 -24 0 -4 16 -28 36 -54 20 -26 40 -56 44 -68 4 -11 31 -51 60 -90 29 -38 55 -77 58 -85 10 -28 53 -80 66 -80 11 0 98 -41 146 -70 76 -44 100 -50 188 -45 48 3 115 7 149 9 80 5 91 12 62 42 -12 13 -26 24 -30 24 -19 0 -97 56 -97 70 -1 8 -1 58 -2 111 l-2 95 -81 70 c-124 105 -121 104 -245 104 -59 0 -112 4 -118 8 -6 4 -14 18 -17 32 -8 31 -44 90 -54 89 -5 0 -20 -8 -34 -17z m260 -196 c7 -4 28 -5 48 -1 33 6 38 3 98 -60 58 -60 64 -71 70 -120 6 -47 4 -59 -21 -104 -17 -29 -34 -49 -41 -47 -7 3 -15 1 -18 -4 -3 -5 -13 -9 -23 -9 -9 0 -30 -3 -45 -7 -39 -9 -169 56 -188 94 -7 15 -23 41 -35 57 -11 17 -24 38 -27 48 -6 16 19 72 65 147 10 16 93 20 117 6z"/>
 <path d="M4287 3111 c-33 -50 -28 -104 12 -128 14 -9 37 -24 51 -33 15 -10 31 -14 40 -9 8 4 23 10 33 13 35 11 13 146 -24 146 -6 0 -25 11 -43 25 -18 14 -35 25 -38 25 -3 0 -17 -18 -31 -39z"/>
 <path d="M2776 703 c-7 -8 13 -33 27 -33 6 0 31 -9 56 -21 53 -24 73 -32 121 -50 19 -7 42 -18 51 -26 8 -7 21 -13 27 -13 7 0 20 -4 30 -9 9 -5 28 -13 42 -19 14 -6 60 -27 102 -46 43 -20 85 -36 93 -36 9 0 25 -5 36 -11 12 -6 25 -7 32 -2 7 5 39 19 72 32 33 13 79 32 102 42 24 10 47 19 53 19 6 0 18 4 28 9 16 8 40 18 100 42 15 6 40 17 55 25 16 8 34 14 40 14 7 0 41 14 75 31 52 25 61 33 51 45 -10 12 -100 14 -599 14 -323 0 -590 -3 -594 -7z"/>
 </g>
<g id="layer102" fill="#2673ff" stroke="none">
 <path d="M1386 6061 c-7 -11 12 -27 94 -81 36 -24 75 -52 87 -63 20 -17 189 -136 451 -314 50 -34 86 -53 92 -47 4 5 11 36 14 69 8 85 25 212 36 265 5 25 12 71 16 102 6 56 5 58 -21 68 -33 12 -761 14 -769 1z"/>
 <path d="M4845 6050 c-3 -6 -48 -10 -100 -10 -52 0 -96 -3 -98 -7 -3 -5 -1 -33 4 -63 9 -57 35 -275 44 -370 6 -68 15 -77 52 -52 15 11 132 91 258 178 469 321 447 305 434 320 -9 11 -64 14 -300 14 -181 0 -290 -4 -294 -10z"/>
 <path d="M2083 5504 c-24 -62 -223 -374 -238 -372 -13 2 -184 -81 -207 -100 -9 -7 -43 -24 -75 -37 -69 -28 -94 -61 -64 -85 10 -8 33 -44 51 -80 17 -36 41 -81 53 -101 12 -20 46 -78 75 -128 30 -50 58 -91 63 -91 9 0 21 20 94 159 50 93 84 152 98 169 23 29 55 112 62 163 4 30 20 99 35 154 16 55 31 118 35 140 6 34 34 155 46 204 6 21 -20 25 -28 5z"/>
 <path d="M4708 5505 c-5 -6 12 -93 56 -285 15 -63 34 -153 43 -200 16 -84 49 -160 147 -341 23 -41 56 -103 74 -137 18 -34 34 -62 36 -62 2 0 36 57 77 126 41 70 83 142 94 160 11 18 31 53 44 76 12 24 29 47 37 51 29 16 -7 47 -134 113 -70 36 -140 75 -156 86 -16 11 -38 21 -50 21 -18 0 -42 32 -121 164 -55 91 -105 177 -113 192 -16 32 -27 43 -34 36z"/>
 <path d="M3320 5474 c-86 -32 -100 -50 -93 -117 5 -49 3 -55 -28 -90 -18 -20 -38 -37 -44 -37 -6 0 -25 -15 -41 -32 -17 -18 -65 -62 -107 -97 -42 -35 -77 -67 -77 -71 0 -13 114 -85 129 -82 9 2 25 14 36 27 11 12 53 50 93 84 l73 61 144 0 144 0 73 -61 c40 -34 82 -72 93 -84 34 -37 52 -37 105 1 27 19 52 35 55 34 25 -6 2 21 -92 105 -59 53 -117 108 -127 122 -10 13 -29 29 -42 34 -22 8 -24 14 -24 83 0 47 -4 77 -12 83 -20 15 -157 63 -176 62 -9 -1 -46 -12 -82 -25z"/>
 <path d="M2059 4596 c-2 -2 -67 -21 -144 -41 -167 -43 -181 -52 -132 -89 18 -14 37 -26 41 -26 9 0 89 -53 101 -67 6 -7 21 -17 35 -23 14 -5 32 -14 40 -19 42 -27 193 -111 198 -111 3 0 14 -7 24 -17 10 -9 27 -21 37 -27 11 -6 59 -35 107 -63 49 -29 92 -49 97 -44 5 5 -18 46 -51 92 -32 46 -112 164 -177 262 -104 156 -121 177 -145 177 -15 0 -29 -2 -31 -4z"/>
 <path d="M4663 4541 c-21 -26 -90 -123 -153 -216 -63 -92 -130 -187 -149 -212 -20 -26 -30 -48 -24 -54 5 -5 59 21 133 65 248 147 349 206 357 206 4 0 35 18 68 40 33 22 64 40 69 40 5 0 18 8 28 17 10 9 28 17 41 18 16 2 21 7 19 21 -2 10 -7 22 -10 26 -6 5 -323 98 -337 98 -2 0 -22 -22 -42 -49z"/>
 <path d="M2411 3523 c-55 -43 -144 -109 -198 -148 -54 -38 -120 -91 -148 -116 -41 -39 -65 -52 -140 -74 -49 -15 -116 -36 -147 -46 -32 -10 -59 -19 -61 -19 -5 0 -15 84 -23 190 -6 81 -17 104 -45 95 -11 -4 -54 -7 -97 -7 -42 0 -85 -4 -94 -9 -21 -11 -18 -61 12 -174 34 -134 61 -265 56 -273 -3 -5 3 -22 14 -39 l18 -30 169 -6 c92 -3 185 -6 205 -7 30 0 55 12 126 60 56 37 92 68 96 82 3 13 6 62 6 110 l0 86 60 49 c118 95 109 91 210 99 52 4 112 8 134 8 24 1 42 7 46 16 22 44 50 112 50 119 0 8 -133 111 -143 111 -3 0 -51 -35 -106 -77z"/>
 <path d="M4198 3538 c-38 -28 -68 -56 -68 -62 0 -6 15 -38 33 -71 36 -67 17 -61 193 -64 l91 -1 51 -50 c28 -27 54 -50 57 -50 4 0 20 -14 35 -30 27 -29 30 -40 37 -138 l8 -106 87 -58 87 -57 217 -1 217 -1 4 31 c1 18 12 66 23 109 12 42 23 89 25 105 6 36 33 155 50 219 7 26 9 50 4 52 -4 3 -60 8 -123 11 -103 5 -116 3 -124 -13 -6 -10 -13 -69 -16 -132 -3 -63 -9 -118 -13 -121 -12 -11 -323 92 -323 106 0 7 -62 60 -137 118 -76 57 -182 139 -236 180 -54 42 -101 76 -105 75 -4 0 -37 -23 -74 -51z"/>
 <path d="M1072 2038 c-5 -7 -37 -54 -70 -104 -33 -51 -65 -95 -71 -98 -6 -4 -11 -17 -11 -30 0 -12 -3 -26 -7 -30 -11 -10 -14 -314 -4 -321 5 -3 44 2 88 10 43 8 80 15 82 15 2 0 0 -8 -4 -17 -7 -18 -69 -247 -146 -538 -21 -82 -44 -160 -50 -171 -9 -17 -3 -60 26 -200 21 -99 42 -205 46 -236 9 -57 36 -189 45 -217 4 -11 7 -12 17 -2 11 11 32 72 150 431 32 96 62 182 66 190 4 8 29 80 54 160 29 91 61 169 87 210 22 36 62 111 89 167 27 56 68 134 91 172 52 89 90 166 90 180 0 6 -24 22 -52 35 -29 13 -82 37 -118 53 -36 17 -88 41 -117 53 -28 12 -56 32 -61 44 -16 32 -186 249 -198 253 -6 2 -16 -2 -22 -9z"/>
 <path d="M5653 2001 c-10 -10 -58 -73 -108 -140 -49 -66 -95 -121 -101 -121 -6 0 -31 -10 -55 -23 -24 -12 -75 -35 -114 -51 -91 -37 -134 -58 -147 -74 -8 -9 -1 -27 25 -70 19 -31 53 -93 75 -137 22 -44 78 -154 125 -245 71 -137 97 -203 157 -390 40 -124 85 -263 100 -310 15 -47 47 -146 70 -220 44 -141 54 -161 69 -144 5 5 25 88 45 184 20 96 49 238 65 314 18 86 26 145 21 155 -5 9 -13 34 -19 56 -21 88 -72 283 -86 330 -33 117 -86 328 -82 331 2 2 39 -3 82 -11 44 -9 85 -13 92 -11 15 6 18 72 3 81 -6 4 -10 54 -10 118 0 62 -4 126 -9 144 -13 43 -151 253 -168 253 -7 0 -21 -8 -30 -19z"/>
 </g>
<g id="layer103" fill="#4184fe" stroke="none">
 <path d="M2255 5011 c-3 -6 -21 -54 -39 -108 -18 -54 -48 -142 -66 -195 -26 -74 -38 -98 -51 -98 -10 0 -21 -5 -24 -10 -4 -6 -10 -8 -15 -5 -5 3 -11 1 -15 -4 -3 -6 -12 -8 -19 -5 -8 3 -17 0 -21 -5 -3 -6 -10 -9 -15 -6 -5 3 -11 1 -15 -4 -3 -6 -12 -8 -19 -5 -17 7 -30 -12 -16 -21 6 -4 17 -1 25 5 8 7 15 9 15 5 0 -4 6 -2 13 4 8 6 17 8 20 4 4 -3 13 0 22 7 8 7 15 9 15 5 0 -4 6 -3 13 3 9 8 19 8 35 -1 12 -7 95 -119 183 -251 l160 -238 -48 27 c-26 15 -67 41 -91 56 -24 16 -47 29 -51 29 -4 0 -16 9 -26 20 -17 19 -41 18 -29 -1 3 -5 9 -7 13 -5 4 3 2 -37 -5 -87 -7 -51 -20 -164 -29 -252 -8 -88 -22 -176 -30 -195 -7 -19 -24 -82 -36 -140 -12 -58 -32 -145 -45 -195 -26 -107 -27 -108 -25 -117 0 -4 44 26 96 67 53 41 117 89 143 107 26 18 89 65 140 105 51 40 96 73 99 73 3 0 29 -17 57 -39 28 -21 71 -48 96 -59 25 -12 78 -46 118 -77 42 -32 79 -52 85 -48 16 9 178 132 198 150 15 13 10 24 -53 121 -39 59 -87 132 -109 162 -21 30 -54 78 -74 106 l-34 52 32 56 c18 32 41 74 52 94 11 20 45 82 75 137 30 55 61 114 70 130 9 17 25 44 35 62 l19 31 -89 117 c-50 64 -110 144 -135 178 -25 34 -69 84 -99 112 -30 27 -79 74 -110 103 l-56 52 -167 0 c-94 0 -169 -4 -173 -9z"/>
 <path d="M4132 4934 c-45 -42 -90 -77 -100 -78 -9 -2 -17 -7 -17 -12 0 -9 -45 -69 -209 -277 l-84 -108 14 -36 c9 -19 26 -53 40 -74 13 -21 24 -41 24 -44 0 -3 31 -60 68 -128 37 -67 81 -148 97 -179 l30 -57 -85 -123 c-46 -68 -112 -162 -146 -210 l-63 -87 67 -54 c112 -90 147 -115 162 -118 8 -2 29 9 45 25 39 37 143 106 160 106 7 0 40 20 74 45 34 25 63 45 66 45 2 0 48 -34 102 -76 312 -240 346 -265 356 -255 6 6 -7 82 -38 218 -25 114 -50 228 -55 253 -15 71 -52 459 -47 474 3 8 46 37 96 66 50 28 89 56 85 61 -6 10 -76 -26 -169 -87 -48 -30 -189 -115 -228 -136 -12 -6 -2 14 25 54 25 34 91 131 148 213 57 83 116 166 131 186 24 30 26 38 15 50 -8 8 -39 93 -69 189 -30 96 -60 187 -66 203 l-11 27 -168 0 -169 0 -81 -76z"/>
 <path d="M1336 1751 c-4 -5 -2 -12 4 -16 5 -3 10 -3 10 1 0 4 8 0 18 -9 10 -9 27 -18 38 -20 10 -1 26 -7 34 -12 8 -5 51 -27 95 -47 79 -37 83 -42 72 -83 -2 -5 -10 -21 -19 -35 -76 -120 -150 -267 -138 -275 5 -3 23 21 40 54 16 33 51 95 76 138 26 43 47 83 48 88 1 6 9 21 19 35 9 13 17 30 17 37 0 11 -171 100 -205 107 -5 1 -25 10 -42 19 -18 10 -33 15 -33 11 0 -4 -6 -1 -14 5 -9 8 -16 8 -20 2z"/>
 <path d="M477 1163 c-12 -11 -8 -111 4 -119 7 -4 9 -24 6 -54 -3 -26 -2 -51 3 -56 6 -7 19 -191 24 -361 1 -17 4 -35 9 -39 4 -4 7 -41 8 -83 1 -94 5 -106 49 -129 144 -76 247 -140 253 -157 4 -8 12 -12 20 -10 7 3 24 -6 36 -19 13 -14 28 -23 32 -20 5 2 26 -7 48 -20 30 -19 42 -22 49 -13 10 13 24 52 27 77 1 8 5 22 9 30 27 66 45 135 36 144 -6 6 -11 4 -15 -5 -19 -52 -44 -132 -44 -137 2 -16 -14 -51 -21 -47 -4 3 -16 49 -25 102 -10 54 -33 170 -51 258 -45 217 -48 241 -35 249 15 9 4 27 -12 20 -13 -5 -356 335 -376 374 -12 22 -22 27 -34 15z"/>
 <path d="M1367 1123 c-13 -21 -32 -54 -42 -73 -18 -35 -75 -197 -74 -208 1 -4 0 -10 -1 -14 -1 -5 -4 -12 -5 -18 -1 -5 -4 -12 -5 -15 -1 -3 -3 -8 -4 -12 -1 -5 -9 -24 -19 -43 -9 -19 -19 -46 -21 -60 -3 -14 -5 -26 -7 -27 -1 -2 -2 -6 -4 -10 -1 -5 -5 -16 -9 -25 -4 -9 -8 -22 -10 -30 -1 -7 -5 -18 -9 -25 -4 -6 -3 -14 3 -18 5 -3 11 -4 11 -1 1 3 2 9 3 14 1 4 7 17 14 29 7 12 12 26 11 30 -1 4 0 11 1 16 1 4 3 10 5 15 1 4 12 29 24 56 12 27 19 51 16 54 -3 3 0 11 6 19 6 7 8 13 4 13 -4 0 -2 7 5 15 7 8 9 15 5 15 -4 0 -3 6 2 13 6 6 24 55 42 107 17 52 47 121 66 152 37 63 30 92 -8 31z"/>
 <path d="M6080 938 c-107 -109 -200 -196 -206 -194 -17 6 -26 -5 -15 -18 6 -7 -5 -81 -29 -196 -22 -102 -49 -234 -61 -295 -12 -60 -25 -114 -29 -118 -4 -5 -12 12 -19 37 -6 25 -16 48 -21 51 -6 4 -8 10 -5 14 4 7 -29 118 -51 171 -4 8 -8 24 -9 36 -2 11 -11 38 -21 60 -9 21 -18 44 -19 49 -1 6 -3 12 -4 15 -1 3 -4 16 -7 29 -2 14 -9 30 -15 38 -6 7 -8 13 -4 13 4 0 2 7 -5 15 -7 8 -9 15 -5 15 4 0 2 6 -4 13 -6 8 -8 16 -5 20 3 3 0 16 -7 29 -7 12 -14 26 -15 31 -1 4 -3 10 -4 15 -1 4 -3 12 -5 17 -1 6 -3 13 -5 18 -1 4 -4 12 -5 17 -1 6 -4 12 -5 15 -1 3 -4 10 -5 15 -1 6 -3 11 -4 13 -2 1 -4 13 -7 26 -2 14 -9 30 -15 38 -6 7 -8 13 -4 13 4 0 2 7 -5 15 -7 8 -10 15 -6 15 3 0 -5 23 -19 50 -14 28 -30 48 -35 45 -6 -4 2 -29 17 -58 15 -29 28 -55 29 -59 1 -5 3 -11 4 -15 1 -5 2 -12 1 -16 -1 -4 4 -18 11 -30 7 -12 13 -25 14 -29 1 -5 3 -10 4 -13 1 -3 4 -9 5 -15 1 -5 4 -13 5 -17 1 -5 3 -12 5 -18 1 -5 3 -13 5 -17 1 -5 4 -12 5 -18 1 -5 3 -11 4 -12 2 -2 4 -14 7 -27 2 -14 9 -30 15 -38 6 -7 8 -13 4 -13 -4 0 -2 -7 5 -15 7 -8 9 -15 5 -15 -4 0 -2 -6 4 -13 6 -8 8 -16 5 -20 -3 -3 0 -16 7 -29 7 -12 14 -27 15 -33 0 -5 2 -12 3 -15 2 -3 4 -13 6 -22 6 -31 27 -93 36 -104 5 -6 7 -13 4 -16 -4 -4 32 -124 52 -168 3 -8 8 -26 10 -39 8 -48 32 -93 45 -85 9 5 8 2 -1 -10 -10 -12 -11 -20 -3 -28 14 -14 54 -3 89 25 26 22 165 105 292 175 30 16 69 41 86 55 30 23 32 31 31 77 -1 29 2 54 7 57 4 2 5 27 1 54 -4 27 -2 54 3 61 5 7 11 49 12 93 1 44 6 127 12 185 6 58 13 122 14 142 2 20 6 61 10 91 4 30 3 56 -1 59 -5 2 -97 -85 -204 -194z"/>
 <path d="M2023 1093 c-6 -14 102 -371 116 -384 14 -15 2484 -27 2487 -13 1 5 28 89 59 188 31 98 54 185 51 193 -4 10 -14 13 -29 10 -27 -6 -179 -49 -299 -83 -48 -14 -98 -24 -110 -22 -14 2 -23 -2 -23 -10 0 -8 -18 -21 -40 -29 -47 -18 -122 -47 -150 -58 -204 -82 -306 -117 -340 -117 -22 0 -76 10 -120 22 -44 12 -105 26 -136 30 -30 5 -66 13 -79 18 -14 5 -39 5 -60 0 -19 -5 -57 -13 -85 -18 -27 -4 -85 -18 -129 -30 -102 -28 -141 -28 -196 -2 -25 11 -74 30 -109 42 -35 12 -84 30 -110 42 -25 11 -62 27 -81 35 -19 8 -44 18 -55 23 -11 5 -31 12 -45 16 -14 4 -36 14 -50 24 -14 9 -50 22 -80 28 -30 7 -98 26 -150 42 -220 67 -231 69 -237 53z"/>
 </g>
<g id="layer104" fill="#71a4ff" stroke="none">
 <path d="M587 5873 c-5 -8 -23 -305 -20 -330 0 -10 -27 -13 -108 -13 -59 0 -111 -4 -114 -10 -3 -5 -15 -92 -26 -192 -10 -101 -23 -217 -29 -258 -5 -41 -9 -101 -10 -132 0 -31 -5 -80 -11 -107 -10 -47 -14 -52 -62 -77 -29 -14 -53 -26 -54 -25 -2 0 -18 -6 -38 -15 -19 -8 -38 -15 -42 -15 -17 -2 -43 -20 -43 -30 0 -22 298 -320 345 -344 26 -14 61 -36 78 -49 18 -13 98 -62 178 -110 105 -62 151 -85 165 -80 31 11 174 116 174 128 0 6 -9 43 -20 81 -12 39 -32 113 -46 165 -14 52 -41 146 -60 208 -19 62 -34 125 -34 140 0 25 97 184 257 420 l50 74 -9 56 c-5 32 -20 127 -32 212 -12 85 -26 155 -32 156 -5 0 -22 6 -37 12 -16 7 -34 12 -42 12 -8 0 -17 5 -20 10 -3 6 -13 10 -21 10 -8 0 -39 11 -68 25 -58 27 -227 85 -250 85 -8 0 -17 -3 -19 -7z"/>
 <path d="M6175 5841 c-3 -6 -14 -11 -23 -11 -9 0 -30 -7 -46 -15 -15 -8 -33 -15 -39 -15 -13 0 -133 -43 -182 -64 -16 -8 -50 -20 -74 -27 -24 -7 -44 -18 -46 -23 -2 -6 -15 -90 -30 -186 -15 -96 -31 -187 -35 -201 -5 -18 -4 -31 5 -40 7 -8 77 -113 155 -234 122 -190 140 -224 136 -252 -2 -17 -39 -146 -80 -285 -42 -140 -78 -268 -82 -284 -5 -28 -1 -33 86 -92 51 -34 96 -62 100 -62 5 0 111 62 237 138 l228 137 144 147 c144 148 158 169 114 185 -10 3 -43 17 -73 31 -82 36 -104 45 -115 46 -5 1 -13 37 -17 81 -3 44 -9 105 -12 135 -3 30 -15 159 -27 285 -12 127 -26 236 -31 243 -7 7 -37 12 -83 12 -40 0 -86 3 -102 6 l-30 6 -8 141 c-4 78 -8 156 -9 172 -1 25 -6 31 -28 33 -14 2 -29 -2 -33 -7z"/>
 <path d="M2861 4949 c-51 -56 -77 -77 -84 -70 -7 7 -15 7 -24 -1 -11 -9 -7 -17 17 -42 17 -17 49 -56 73 -88 23 -31 82 -108 131 -172 97 -127 95 -118 46 -193 -13 -19 -17 -34 -11 -37 6 -4 28 22 50 56 28 45 84 102 190 197 83 74 148 138 145 143 -7 12 -62 46 -212 134 -68 40 -124 76 -125 81 -1 4 -6 7 -10 5 -5 -1 -30 13 -57 33 -26 19 -49 35 -51 35 -2 0 -37 -36 -78 -81z"/>
 <path d="M3810 4984 c-30 -20 -133 -81 -227 -136 -95 -55 -173 -103 -173 -108 0 -5 67 -68 149 -142 81 -73 156 -145 165 -161 19 -30 43 -28 26 2 -7 15 7 39 76 127 171 218 209 269 206 277 -1 5 3 5 9 2 13 -9 91 64 83 77 -3 5 -23 -7 -45 -27 -21 -19 -42 -35 -46 -35 -3 0 -40 36 -80 80 -41 44 -78 80 -81 80 -4 0 -32 -16 -62 -36z"/>
 <path d="M3869 3768 c-62 -90 -116 -168 -121 -175 -5 -7 -5 -14 1 -17 5 -4 60 67 122 156 62 90 116 168 121 175 5 7 5 14 -1 17 -5 4 -60 -67 -122 -156z"/>
 <path d="M3016 3611 c-3 -5 7 -27 23 -49 l29 -40 -102 -77 -103 -76 -11 -92 c-7 -51 -17 -151 -23 -223 l-11 -130 46 -175 c25 -95 61 -232 80 -304 32 -123 35 -130 58 -128 13 0 104 47 203 103 l179 102 40 -21 c23 -11 73 -38 111 -60 209 -117 251 -139 257 -133 4 4 45 145 91 313 l83 305 -18 205 c-10 112 -16 209 -14 215 3 6 -24 32 -60 58 -35 26 -87 67 -116 91 l-52 43 -77 -60 c-42 -33 -112 -88 -155 -122 l-78 -63 -159 125 c-87 68 -170 142 -184 163 -28 42 -29 43 -37 30z"/>
 <path d="M2407 1653 c-17 -16 -43 3 439 -323 93 -63 197 -134 231 -157 46 -32 63 -39 71 -30 6 7 12 101 14 222 l3 210 -55 6 c-30 3 -143 16 -250 28 -107 12 -204 23 -215 26 -11 2 -54 7 -95 10 -41 3 -89 8 -106 10 -17 3 -33 2 -37 -2z"/>
 <path d="M3953 1611 c-188 -20 -347 -41 -353 -47 -11 -11 5 -413 18 -426 4 -4 41 16 82 43 41 28 209 139 373 246 164 108 296 201 294 207 -6 17 -50 15 -414 -23z"/>
 <path d="M2013 1094 c-3 -9 0 -27 7 -42 8 -15 14 -30 16 -34 1 -5 3 -10 4 -13 1 -3 4 -9 5 -15 1 -5 3 -11 5 -12 1 -2 3 -12 4 -23 4 -30 27 -98 39 -112 5 -7 6 -13 2 -13 -4 0 -2 -7 5 -15 7 -8 9 -15 5 -15 -4 0 -2 -7 5 -15 7 -8 9 -15 4 -15 -4 0 -3 -5 3 -11 6 -6 9 -17 7 -24 -7 -16 12 -29 21 -15 4 6 1 17 -5 25 -7 8 -9 15 -5 15 4 0 2 7 -5 15 -7 8 -9 15 -5 15 4 0 2 7 -5 15 -7 8 -9 15 -5 15 4 0 2 6 -4 13 -6 8 -9 16 -6 19 5 4 -14 66 -32 108 -3 8 -7 18 -8 23 -2 4 -4 9 -5 12 -1 3 -4 10 -5 15 -1 6 -3 11 -5 13 -7 8 -9 57 -3 57 4 0 30 -7 57 -15 27 -8 52 -13 54 -10 3 3 11 0 18 -6 8 -7 14 -7 19 1 3 5 4 11 1 11 -3 1 -9 2 -13 3 -5 1 -12 4 -18 8 -13 8 -93 30 -123 34 -13 1 -26 -4 -29 -12z"/>
 </g>
<g id="layer105" fill="#9cbfff" stroke="none">
 <path d="M1351 6052 c-9 -17 -3 -169 14 -337 6 -57 6 -59 -12 -43 -10 8 -51 33 -91 53 -39 21 -77 44 -83 52 -6 7 -16 13 -22 13 -6 0 -18 6 -26 13 -9 7 -35 22 -59 32 -55 24 -65 14 -52 -51 10 -50 56 -341 67 -426 5 -45 12 -53 132 -166 177 -167 261 -242 273 -242 5 0 83 38 173 85 90 47 171 85 179 85 15 0 98 120 181 260 46 78 65 101 76 94 14 -8 11 -24 -3 -21 -7 1 -13 -5 -13 -13 0 -8 -4 -21 -9 -28 -4 -7 -5 -16 -2 -19 3 -3 1 -12 -5 -19 -6 -7 -8 -18 -4 -24 9 -14 28 -1 21 16 -3 7 -1 16 5 20 6 3 8 12 5 19 -3 8 1 18 8 24 12 10 14 6 122 -337 18 -56 21 -79 13 -99 -6 -18 -6 -30 0 -36 7 -7 14 -1 21 19 l10 29 165 0 165 0 74 -74 c61 -60 78 -72 89 -63 10 9 13 26 9 61 -4 49 -4 49 79 151 46 56 98 118 114 139 85 105 85 105 139 111 l51 5 23 65 23 65 97 50 97 50 -2 79 c-2 43 -8 84 -13 91 -6 7 -30 16 -54 19 -104 16 -249 44 -291 56 -16 5 -47 11 -67 14 -21 3 -55 10 -76 14 -21 5 -137 5 -262 -1 -263 -11 -230 3 -414 -167 l-119 -109 -28 16 c-16 10 -82 55 -148 102 -66 48 -173 123 -238 168 -65 46 -162 114 -216 153 -54 38 -100 70 -102 70 -2 0 -9 -8 -14 -18z"/>
 <path d="M5440 6036 c-14 -12 -706 -487 -720 -494 -4 -1 -6 8 -6 20 1 15 -4 22 -14 21 -8 -2 -73 51 -143 116 l-129 119 -136 8 c-281 15 -373 11 -542 -23 -85 -17 -188 -37 -228 -44 -40 -7 -77 -18 -83 -25 -6 -7 -11 -48 -12 -91 l-2 -78 94 -50 c93 -49 95 -51 115 -105 29 -77 32 -80 80 -80 42 0 43 -1 132 -112 49 -62 113 -141 142 -176 l54 -64 -4 -61 c-2 -43 1 -62 9 -62 6 0 47 32 90 71 l78 71 162 -5 c121 -3 166 -8 174 -18 6 -8 8 -14 4 -14 -4 0 -2 -7 5 -15 7 -8 9 -15 5 -15 -4 0 -2 -7 5 -15 7 -8 9 -15 5 -15 -4 0 -2 -7 5 -15 7 -8 9 -15 5 -15 -4 0 -2 -7 5 -15 7 -8 9 -15 5 -15 -4 0 -2 -7 5 -15 7 -8 9 -15 5 -15 -4 0 -2 -6 4 -13 6 -8 8 -16 5 -19 -9 -10 25 -80 35 -73 10 5 5 25 -16 75 -3 8 -7 18 -8 23 -2 4 -4 9 -5 12 -1 3 -4 10 -5 15 -1 6 -4 12 -5 15 -1 3 -4 10 -5 15 -1 6 -4 12 -5 15 -1 3 -4 10 -5 15 -1 6 -4 12 -5 15 -1 3 -4 10 -5 15 -1 6 -4 12 -5 15 -1 3 -4 10 -5 15 -1 6 -3 11 -5 13 -12 15 0 70 51 227 33 102 65 200 71 218 5 18 13 30 18 27 15 -9 22 15 10 30 -7 8 -9 15 -4 14 5 0 59 -84 120 -187 61 -103 118 -187 125 -187 8 0 90 -40 182 -88 93 -49 175 -87 182 -85 12 3 191 162 353 313 l42 40 31 195 c17 107 35 203 40 212 13 25 23 124 13 131 -11 6 -151 -61 -189 -91 -15 -12 -31 -22 -35 -22 -5 0 -36 -16 -69 -34 l-61 -35 5 52 c16 170 26 337 20 346 -8 15 -18 14 -35 -3z"/>
 <path d="M3465 4785 c-47 -29 -66 -30 -105 -10 -17 9 -31 11 -35 5 -3 -5 9 -17 27 -26 31 -16 32 -17 12 -33 -11 -9 -80 -70 -152 -135 -141 -127 -166 -159 -272 -361 -29 -55 -75 -137 -101 -183 -53 -90 -56 -98 -35 -121 7 -9 68 -97 134 -196 66 -99 133 -192 149 -206 15 -14 91 -76 169 -136 l141 -110 43 36 c24 20 99 79 166 131 l122 95 141 204 c78 112 141 205 141 206 0 2 -17 34 -39 72 -21 37 -63 115 -94 173 -146 275 -143 271 -272 385 -66 59 -133 120 -149 135 l-28 28 46 27 c25 15 43 31 40 36 -7 12 -3 13 -49 -16z"/>
 <path d="M1909 3798 c-23 -40 -57 -98 -75 -129 -19 -31 -34 -59 -34 -62 0 -3 -27 -53 -60 -111 -56 -99 -60 -110 -60 -168 1 -84 16 -198 28 -210 7 -7 42 0 104 20 51 16 121 38 155 47 40 12 68 26 77 40 14 22 46 147 87 340 12 61 29 118 38 128 10 12 11 21 4 28 -8 8 -13 8 -18 0 -4 -7 -35 12 -81 51 -42 35 -86 71 -99 81 l-24 18 -42 -73z"/>
 <path d="M4736 3770 c-53 -44 -98 -80 -101 -80 -5 0 -5 -6 0 -25 2 -5 18 -77 35 -160 40 -187 70 -304 79 -309 4 -3 77 -27 161 -55 121 -39 158 -47 167 -38 7 7 15 41 19 77 3 36 9 91 13 123 5 36 4 64 -3 76 -47 83 -112 202 -156 286 -77 146 -100 185 -110 185 -5 0 -52 -36 -104 -80z"/>
 <path d="M2802 3313 c-23 -32 -81 -116 -130 -188 l-88 -130 -131 -67 -132 -68 -154 11 c-86 7 -162 9 -170 6 -14 -5 -15 -33 -14 -196 3 -268 19 -277 118 -66 l64 137 130 -7 c72 -4 131 -8 132 -9 1 -1 7 -87 13 -192 6 -104 15 -198 19 -210 8 -19 22 -21 197 -32 104 -7 215 -12 246 -12 56 0 57 0 52 -27 -3 -15 -12 -41 -20 -58 -7 -16 -43 -105 -78 -197 l-64 -167 22 -20 c11 -11 60 -46 108 -78 47 -32 126 -86 175 -119 l89 -62 99 48 100 47 97 -48 96 -48 189 125 c103 69 194 131 200 138 10 9 -5 58 -69 229 -45 119 -78 220 -75 224 4 3 114 10 244 15 131 5 242 13 247 18 7 7 36 285 34 320 0 3 0 27 1 53 l1 48 137 -3 137 -3 54 -120 c53 -120 81 -163 100 -151 13 8 28 394 16 406 -5 5 -75 4 -166 -2 l-156 -11 -131 64 -131 63 -121 183 c-135 203 -150 221 -168 200 -8 -11 -7 -65 7 -222 l18 -208 -79 -291 c-43 -160 -82 -295 -87 -299 -7 -8 -51 15 -255 130 -33 19 -78 43 -101 54 l-40 21 -176 -100 c-96 -55 -184 -103 -195 -106 -18 -6 -23 5 -53 121 -18 71 -53 204 -77 297 l-45 170 18 185 c9 103 18 202 18 221 2 55 -24 49 -72 -17z"/>
 <path d="M1417 2154 c-3 -3 -3 -12 -1 -19 9 -21 -117 -317 -132 -311 -25 9 -22 -9 4 -40 17 -20 60 -45 117 -69 116 -48 225 -103 225 -113 0 -4 -18 -38 -39 -77 -217 -400 -287 -538 -312 -620 -28 -92 -113 -344 -128 -380 -5 -11 -16 -47 -26 -80 -9 -33 -23 -73 -30 -90 -7 -16 -30 -83 -51 -147 -36 -111 -37 -119 -21 -135 15 -15 18 -15 34 -2 10 9 38 21 63 29 25 7 72 25 105 40 33 16 81 34 105 41 25 7 52 18 61 26 8 7 24 13 35 13 11 0 35 8 54 18 19 11 47 22 63 26 42 10 169 92 244 158 37 33 85 71 107 85 35 23 86 61 189 144 l38 31 64 -43 c194 -134 325 -226 363 -256 23 -19 42 -31 42 -27 0 4 9 -1 20 -11 12 -11 29 -20 38 -21 9 -2 44 -8 77 -13 116 -21 190 -33 240 -41 28 -5 68 -13 90 -19 22 -6 81 -15 130 -22 50 -6 113 -15 141 -20 31 -6 69 -6 100 0 27 5 90 14 139 20 50 7 118 18 152 26 34 8 76 15 93 15 18 0 49 4 69 10 20 5 82 16 139 25 113 18 122 22 202 81 30 22 72 52 92 65 20 13 82 56 138 94 55 39 110 75 120 81 11 6 29 19 39 28 22 20 2 33 266 -179 48 -38 98 -77 112 -86 13 -9 31 -26 39 -38 8 -11 21 -21 28 -21 7 0 25 -13 41 -30 16 -16 36 -30 45 -30 9 0 25 -7 36 -15 10 -8 27 -15 37 -15 17 0 25 -3 84 -34 17 -9 36 -16 43 -16 10 0 52 -17 155 -65 17 -7 48 -19 70 -26 22 -7 47 -19 55 -25 22 -18 106 -28 114 -15 6 9 -91 327 -174 571 -11 30 -40 120 -65 200 -43 137 -87 232 -228 500 -79 151 -127 247 -127 257 0 5 66 37 148 72 168 72 192 85 192 107 0 9 -27 84 -61 167 -33 84 -62 163 -64 177 -1 14 -3 27 -4 30 0 3 -108 -101 -238 -231 -228 -226 -247 -242 -436 -373 -110 -76 -200 -136 -202 -134 -1 2 4 56 12 121 11 88 12 122 4 130 -14 14 -2 25 -173 -174 -297 -347 -361 -419 -372 -419 -6 0 -82 15 -169 33 -130 28 -159 31 -168 20 -7 -7 -14 -53 -17 -102 -4 -80 -3 -90 14 -98 13 -7 84 -4 209 7 288 27 458 42 475 42 16 0 125 28 318 81 67 19 122 34 122 33 0 -1 -27 -84 -59 -185 l-59 -185 -306 3 c-208 2 -311 -1 -320 -8 -14 -12 -62 -32 -380 -162 -120 -49 -224 -89 -230 -89 -7 0 -88 32 -181 71 -94 39 -224 93 -290 121 -66 27 -124 56 -128 64 -7 12 -62 14 -322 14 -245 0 -315 3 -315 13 0 6 -25 88 -55 181 -31 93 -54 171 -51 173 3 3 88 -20 316 -89 66 -20 216 -40 440 -58 106 -8 205 -19 320 -35 53 -7 62 8 59 103 -4 123 -4 123 -86 106 -38 -7 -115 -22 -172 -33 l-105 -20 -15 22 c-9 12 -38 47 -66 78 -27 31 -99 116 -160 189 -60 73 -148 175 -194 227 -72 81 -87 92 -96 79 -9 -12 -9 -37 1 -103 8 -49 14 -101 14 -116 l0 -28 -62 45 c-35 25 -123 87 -196 137 -119 82 -157 116 -364 330 -127 132 -234 239 -238 239 -4 0 -9 -3 -13 -6z"/>
 <path d="M1049 1486 c-2 -2 -39 -9 -81 -15 -69 -9 -135 -38 -158 -69 -3 -4 -30 -24 -60 -44 -109 -73 -245 -185 -248 -204 -3 -24 374 -412 388 -398 5 5 26 77 48 159 46 175 104 391 131 489 11 39 18 73 15 78 -5 8 -28 11 -35 4z"/>
 <path d="M5684 1446 c-3 -7 11 -74 30 -147 19 -74 41 -159 49 -189 83 -331 97 -379 109 -387 14 -8 401 382 396 398 -3 8 -64 59 -137 116 -73 56 -139 110 -146 120 -8 10 -15 14 -15 9 0 -4 -19 7 -43 27 -35 29 -59 38 -128 51 -104 19 -108 20 -115 2z"/>
 </g>
<g id="layer106" fill="#d2e2fe" stroke="none">
 <path d="M3381 6901 c-6 -10 -33 -45 -61 -77 -27 -33 -50 -64 -50 -70 0 -11 -42 -44 -55 -44 -3 0 -5 9 -5 20 0 10 -6 23 -14 27 -8 4 -17 20 -20 35 -4 27 -44 88 -56 88 -13 0 -36 -35 -64 -92 -15 -32 -31 -60 -36 -63 -5 -3 -11 -18 -15 -34 -3 -16 -13 -35 -21 -42 -8 -6 -14 -19 -14 -28 0 -9 -6 -23 -12 -29 -7 -7 -14 -17 -14 -23 -1 -5 -2 -13 -3 -19 -2 -16 -23 -12 -83 18 l-57 29 -31 -32 c-16 -17 -30 -35 -30 -39 0 -4 -13 -25 -30 -46 -16 -21 -30 -41 -30 -44 0 -4 -15 -22 -33 -41 -18 -19 -40 -46 -48 -61 -36 -68 -114 -116 -134 -84 -3 6 -16 10 -28 10 -12 0 -31 7 -41 15 -11 8 -30 15 -42 15 -12 0 -27 6 -33 14 -7 8 -24 17 -39 21 -15 4 -35 14 -44 22 -17 15 -54 11 -44 -5 3 -5 -1 -30 -9 -57 -8 -26 -12 -58 -9 -71 3 -13 3 -32 -1 -41 -4 -10 -7 -31 -6 -46 2 -15 -3 -35 -9 -43 -10 -11 -10 -17 0 -29 10 -12 10 -30 1 -87 -38 -231 -58 -394 -50 -402 5 -6 40 20 86 65 43 41 106 99 140 128 l62 53 -15 40 c-8 23 -13 46 -13 52 2 10 -1 20 -18 64 -4 9 -8 22 -8 27 -1 6 -5 18 -9 27 -4 9 -9 23 -10 32 -1 8 -5 19 -9 22 -4 4 -7 17 -7 29 0 11 -5 26 -11 32 -6 6 -13 26 -15 44 -2 17 -9 38 -15 45 -6 8 -8 14 -5 14 4 0 2 9 -4 20 -15 28 -9 25 46 -20 27 -22 53 -40 59 -40 6 0 16 -9 23 -20 7 -11 17 -20 24 -20 6 0 32 -17 57 -38 25 -21 82 -64 126 -94 44 -30 96 -69 115 -86 19 -18 38 -32 42 -32 5 0 26 -16 47 -36 36 -34 44 -37 107 -40 38 -2 96 -8 129 -13 33 -6 132 -18 220 -27 147 -15 171 -15 295 0 74 8 167 18 205 21 39 3 90 8 114 12 24 3 59 6 76 7 36 2 61 17 120 70 22 20 45 36 51 36 6 0 23 11 38 25 14 13 26 22 26 20 0 -5 91 63 100 74 3 3 14 12 25 19 83 53 115 76 115 83 0 5 7 9 15 9 7 0 19 8 24 18 6 9 11 13 11 9 0 -5 21 10 47 33 47 41 66 40 45 -3 -18 -37 -25 -62 -23 -74 1 -6 -3 -14 -9 -18 -5 -3 -10 -15 -10 -26 0 -11 -9 -37 -20 -58 -10 -21 -17 -41 -14 -43 2 -3 -3 -22 -13 -44 -18 -42 -19 -45 -27 -84 -3 -14 -11 -35 -18 -48 -11 -21 -5 -28 83 -110 191 -178 188 -176 196 -157 3 10 -6 112 -22 226 -15 114 -25 220 -22 235 7 37 -12 237 -24 248 -5 6 -9 20 -9 32 0 33 -16 38 -49 15 -15 -11 -50 -25 -77 -31 -27 -6 -59 -18 -71 -26 -12 -7 -33 -14 -45 -14 -13 0 -36 -7 -52 -15 -38 -20 -39 -19 -53 13 -7 15 -25 41 -40 58 -16 16 -36 47 -45 67 -10 20 -22 37 -28 37 -5 0 -10 5 -10 11 0 12 -61 90 -105 134 -28 28 -33 30 -63 19 -19 -6 -37 -15 -40 -21 -4 -5 -19 -13 -34 -17 -25 -6 -28 -3 -39 36 -7 24 -21 52 -31 64 -10 11 -18 32 -18 47 0 14 -4 28 -9 31 -12 8 -61 110 -61 128 0 8 -9 23 -21 33 -20 19 -20 18 -44 -10 -13 -17 -24 -40 -25 -51 0 -12 -7 -27 -15 -34 -8 -7 -15 -17 -15 -22 0 -5 -9 -21 -19 -34 -19 -24 -20 -24 -26 -5 -3 11 -17 29 -31 40 -13 10 -24 23 -24 28 0 5 -15 27 -33 49 -19 21 -39 49 -46 62 -15 28 -66 31 -80 3z"/>
 <path d="M2096 5478 c-10 -28 -118 -495 -121 -520 -3 -22 -32 -80 -90 -176 -6 -9 -39 -72 -75 -139 -35 -68 -66 -123 -70 -123 -3 0 -34 51 -70 113 -56 98 -80 142 -147 270 -8 15 -20 26 -26 24 -7 -2 -37 -77 -67 -168 l-55 -164 -191 -190 -191 -191 -6 -401 -7 -402 29 -88 c16 -49 44 -124 61 -168 18 -44 47 -125 65 -180 32 -96 65 -187 85 -230 5 -11 12 -31 16 -45 3 -14 15 -43 24 -65 10 -22 20 -47 23 -56 3 -10 33 -24 79 -36 l73 -20 1 -181 c0 -100 3 -185 7 -188 3 -4 27 3 52 15 24 11 49 21 54 21 8 0 67 26 216 94 39 18 97 43 130 56 59 24 105 55 105 72 0 5 -18 36 -40 68 -22 32 -40 63 -40 68 0 5 -29 53 -65 107 -36 53 -65 99 -65 102 0 2 -18 31 -40 64 l-41 59 -80 0 c-98 0 -83 25 -140 -245 -7 -33 -17 -69 -23 -80 -9 -19 -10 -18 -17 10 -4 17 -33 104 -64 195 -31 91 -68 201 -81 244 l-24 80 15 250 c8 138 20 352 26 476 6 124 14 289 18 367 4 78 9 144 11 146 3 2 52 25 110 51 58 26 143 66 190 89 47 23 92 41 100 40 8 -1 42 7 75 17 33 11 80 24 105 29 25 6 79 19 120 29 l75 19 27 79 c14 43 31 90 37 104 5 14 26 73 45 132 l35 107 -26 83 c-115 369 -134 417 -147 376z"/>
 <path d="M4697 5483 c-2 -4 -11 -30 -20 -58 -9 -27 -43 -133 -76 -235 l-60 -186 64 -197 c68 -207 81 -241 94 -233 4 3 85 -17 180 -43 94 -27 174 -44 177 -40 5 8 -21 60 -163 326 -30 57 -56 113 -57 125 -2 13 -13 68 -25 123 -22 98 -28 126 -72 315 -21 93 -32 120 -42 103z"/>
 <path d="M3186 5065 c-48 -41 -100 -84 -114 -95 l-27 -20 30 -25 c17 -14 33 -25 36 -25 4 0 66 -36 139 -80 73 -44 141 -80 152 -80 19 0 101 44 225 121 34 22 66 39 70 39 5 0 22 11 38 25 l30 25 -30 22 c-16 13 -48 39 -70 58 -22 20 -61 53 -86 73 l-46 37 -130 0 -130 0 -87 -75z"/>
 <path d="M5273 4853 c-16 -26 -33 -55 -37 -63 -4 -8 -12 -24 -19 -35 -90 -149 -147 -257 -142 -266 8 -11 348 -179 364 -179 5 0 12 -24 15 -52 11 -109 45 -988 43 -1118 l-3 -135 -81 -230 c-44 -126 -84 -238 -88 -247 -12 -29 19 -31 94 -8 80 26 82 28 104 90 9 25 39 106 67 180 67 178 72 190 109 295 18 50 41 109 52 132 10 24 19 47 19 52 0 5 9 28 20 52 18 42 20 67 20 454 l0 410 -93 95 c-52 52 -136 139 -188 193 l-94 97 -55 162 c-30 89 -60 163 -66 165 -7 2 -25 -18 -41 -44z"/>
 <path d="M1737 4452 c-39 -60 -98 -182 -92 -192 3 -4 38 -11 78 -14 39 -4 97 -8 127 -11 272 -24 332 -27 341 -18 7 7 -28 32 -108 78 -65 37 -148 88 -185 112 -37 23 -70 43 -74 43 -3 0 -18 9 -34 20 l-28 20 -25 -38z"/>
 <path d="M4955 4418 c-38 -22 -88 -51 -110 -63 -129 -73 -221 -128 -228 -134 -4 -4 -2 -12 5 -18 9 -7 94 -4 273 11 212 17 260 24 262 36 3 22 -100 204 -117 207 -8 1 -46 -16 -85 -39z"/>
 <path d="M317 4308 c-13 -30 -28 -71 -32 -93 -10 -46 -9 -44 -19 -67 -5 -10 -12 -15 -17 -12 -5 3 -23 -2 -41 -10 -18 -8 -42 -16 -53 -18 -16 -3 -19 -10 -17 -33 2 -16 8 -35 12 -40 5 -6 12 -31 15 -55 3 -24 10 -49 16 -56 6 -7 8 -18 4 -25 -4 -6 -2 -22 4 -35 22 -49 43 -105 46 -124 0 -3 4 -11 8 -17 5 -7 5 -18 2 -23 -4 -6 1 -24 9 -41 9 -17 13 -35 10 -40 -2 -5 2 -20 11 -33 9 -14 14 -30 11 -35 -4 -5 -2 -12 3 -16 5 -3 9 -13 9 -23 -2 -24 31 -143 42 -158 6 -6 8 -18 4 -27 -3 -8 0 -26 7 -39 7 -13 14 -38 16 -56 1 -19 9 -44 17 -57 8 -12 12 -32 10 -43 -3 -11 -1 -23 5 -26 6 -4 11 -18 11 -31 0 -14 9 -42 21 -64 11 -22 18 -45 14 -51 -3 -5 2 -37 11 -70 l17 -61 -43 -39 c-24 -22 -47 -40 -51 -40 -13 0 -31 -40 -25 -56 3 -8 12 -14 21 -14 8 0 14 -6 13 -12 -2 -7 3 -12 11 -10 7 2 20 -6 28 -18 8 -11 20 -20 27 -20 8 0 16 -7 20 -15 3 -8 10 -15 15 -15 6 0 22 -11 37 -25 16 -14 43 -33 61 -42 18 -8 30 -19 27 -24 -3 -5 3 -12 13 -16 10 -3 25 -12 33 -19 8 -7 17 -12 20 -11 9 2 107 -68 108 -76 1 -5 19 -23 40 -40 50 -40 163 -172 160 -185 -3 -12 88 -112 102 -112 5 0 47 -51 94 -113 46 -62 91 -119 100 -126 18 -15 28 2 106 195 l53 132 -59 93 c-32 52 -91 143 -131 202 -40 59 -73 112 -73 116 0 8 -18 36 -125 201 -68 105 -191 296 -216 339 -14 23 -18 71 -23 252 -11 337 -14 440 -22 605 l-6 152 -107 63 c-114 67 -192 116 -256 159 -84 57 -82 57 -108 -2z"/>
 <path d="M6285 4220 c-88 -55 -183 -113 -212 -129 -28 -17 -55 -36 -59 -42 -9 -15 -18 -191 -34 -639 l-12 -334 -47 -71 c-64 -95 -182 -275 -276 -420 -150 -231 -248 -380 -278 -425 -17 -25 -30 -52 -30 -60 2 -19 122 -322 133 -333 4 -5 51 48 104 117 66 86 103 126 117 126 12 0 24 11 32 28 6 15 17 31 24 35 7 4 13 14 13 21 0 7 13 26 30 42 16 16 30 32 30 36 0 9 68 85 104 117 16 14 45 41 64 59 19 17 39 32 44 32 5 0 29 16 52 35 24 19 47 35 52 35 9 0 114 75 124 89 3 4 38 26 77 50 40 24 71 47 68 51 -3 4 4 10 15 13 27 7 25 31 -2 50 -13 8 -43 33 -68 56 l-44 42 16 47 c19 55 33 113 30 126 -2 4 2 14 8 20 5 7 7 16 3 19 -3 4 -1 13 6 21 6 7 18 36 25 62 8 27 21 75 30 107 9 32 16 68 16 81 0 12 3 26 7 30 12 11 42 119 37 128 -3 5 -1 15 5 22 12 14 40 104 45 141 1 11 8 33 14 48 7 16 12 40 12 54 0 13 14 54 30 90 17 36 28 74 25 83 -3 10 -1 21 5 25 5 3 10 15 10 26 0 10 4 27 9 37 4 9 13 31 19 49 14 44 -16 71 -81 75 -38 3 -46 6 -41 20 2 9 1 19 -4 22 -6 3 -13 23 -17 43 -3 21 -13 48 -21 60 -7 12 -11 29 -8 38 7 17 -12 45 -30 44 -6 0 -83 -45 -171 -99z"/>
 <path d="M2190 4195 c-7 -8 -19 -15 -26 -15 -8 0 -22 -4 -32 -9 -16 -8 -67 -22 -257 -70 -147 -38 -268 -72 -284 -80 -12 -7 -24 -53 -45 -163 -15 -84 -32 -169 -37 -188 -20 -73 -58 -274 -53 -282 6 -10 98 -10 183 -2 l62 7 38 66 c21 36 54 95 73 131 68 128 140 250 148 250 5 0 51 -36 104 -80 59 -50 97 -76 102 -69 4 6 13 77 20 158 7 80 18 173 24 206 21 130 14 181 -20 140z"/>
 <path d="M4576 4192 c-3 -4 -1 -37 4 -73 4 -35 16 -145 26 -244 9 -99 21 -185 26 -192 7 -9 35 9 105 68 78 65 98 78 108 67 7 -7 39 -65 72 -128 109 -208 153 -287 171 -302 20 -18 236 -35 246 -19 3 5 0 42 -8 83 -8 40 -33 172 -56 293 -23 121 -45 227 -49 235 -8 15 -64 40 -136 59 -90 25 -265 74 -345 97 -47 14 -94 28 -105 31 -11 3 -27 12 -37 20 -9 8 -18 10 -22 5z"/>
 <path d="M5027 2793 c-24 -38 -62 -97 -85 -133 -23 -36 -71 -112 -108 -170 l-67 -104 23 -16 c50 -33 524 -241 538 -235 12 4 14 33 10 179 -2 103 -9 180 -15 188 -6 7 -25 81 -42 163 -44 209 -35 195 -130 195 l-79 0 -45 -67z"/>
 <path d="M2285 2463 c-82 -17 -222 -58 -233 -68 -11 -10 -9 -23 8 -71 12 -32 43 -120 69 -194 27 -74 60 -162 73 -195 14 -33 33 -87 43 -120 9 -33 23 -72 31 -86 l13 -27 88 24 c160 44 267 71 345 89 43 9 82 22 87 29 5 6 35 79 66 161 31 83 65 168 74 190 28 62 31 74 21 80 -9 6 -24 -3 -212 -124 -53 -35 -105 -64 -115 -65 -10 0 -36 24 -66 64 -159 213 -246 320 -260 319 -7 -1 -21 -3 -32 -6z"/>
 <path d="M4428 2433 c-31 -35 -171 -211 -220 -278 -72 -100 -54 -101 -235 19 -87 58 -162 101 -166 97 -9 -9 137 -408 157 -429 11 -11 119 -44 351 -106 142 -37 159 -40 171 -24 11 15 26 52 113 283 32 88 78 207 100 265 23 58 39 110 37 116 -2 6 -26 17 -53 24 -26 7 -86 23 -133 36 -46 13 -87 24 -90 24 -4 0 -18 -12 -32 -27z"/>
 </g>
<g id="layer107" fill="#fefefe" stroke="none">
 <path d="M2237 6293 c-3 -5 22 -89 55 -188 33 -99 62 -193 65 -210 3 -16 11 -42 19 -58 14 -26 18 -27 62 -22 26 2 126 7 222 10 179 5 213 13 175 41 -11 8 -67 50 -125 94 -58 44 -167 124 -242 179 -76 54 -154 113 -175 130 -39 32 -49 36 -56 24z"/>
 <path d="M4525 6252 c-54 -40 -278 -203 -405 -292 -42 -30 -95 -69 -116 -87 l-39 -31 25 -10 c14 -5 106 -13 205 -17 99 -4 194 -8 210 -9 l30 -1 61 180 c34 99 64 187 67 195 20 54 28 93 20 101 -5 5 -30 -7 -58 -29z"/>
 <path d="M2441 3300 c-88 -6 -96 -9 -121 -37 -15 -16 -34 -32 -42 -36 -25 -9 -65 -69 -72 -107 -5 -28 0 -48 26 -98 35 -70 45 -78 119 -92 49 -9 55 -8 120 26 62 33 74 44 117 112 26 41 46 80 44 86 -4 12 -93 157 -96 154 0 0 -43 -4 -95 -8z m55 -181 c11 -21 13 -43 8 -75 -6 -39 -11 -47 -46 -65 -22 -11 -53 -19 -71 -17 -32 3 -32 4 -32 57 0 55 0 55 55 97 30 23 58 40 63 37 4 -2 14 -18 23 -34z"/>
 <path d="M4232 3280 c-3 -8 -15 -28 -28 -45 -12 -16 -29 -45 -38 -63 -17 -33 -17 -33 22 -95 21 -34 41 -70 45 -79 3 -10 11 -18 17 -18 6 0 36 -16 66 -35 l54 -35 74 13 75 12 31 60 c27 51 30 66 25 105 -5 38 -17 57 -73 117 l-67 72 -99 3 c-80 2 -100 0 -104 -12z m145 -175 c49 -33 51 -36 55 -87 2 -30 -1 -56 -7 -61 -5 -4 -28 -5 -49 -2 -89 13 -129 85 -84 151 13 19 25 34 28 34 3 0 28 -16 57 -35z"/>
 </g>

</svg>
