<?xml version="1.0" encoding="UTF-8" standalone="no"?>
<!-- Created with Inkscape (http://www.inkscape.org/) -->

<svg
   xmlns:dc="http://purl.org/dc/elements/1.1/"
   xmlns:cc="http://creativecommons.org/ns#"
   xmlns:rdf="http://www.w3.org/1999/02/22-rdf-syntax-ns#"
   xmlns:svg="http://www.w3.org/2000/svg"
   xmlns="http://www.w3.org/2000/svg"
   xmlns:sodipodi="http://sodipodi.sourceforge.net/DTD/sodipodi-0.dtd"
   xmlns:inkscape="http://www.inkscape.org/namespaces/inkscape"
   width="139.06853"
   height="54.1059"
   viewBox="0 0 36.795215 14.315519"
   version="1.1"
   id="svg13568"
   inkscape:version="0.92.0 r15299"
   sodipodi:docname="4imprint.svg">
  <defs
     id="defs13562" />
  <sodipodi:namedview
     id="base"
     pagecolor="#ffffff"
     bordercolor="#666666"
     borderopacity="1.0"
     inkscape:pageopacity="0.0"
     inkscape:pageshadow="2"
     inkscape:zoom="6.4967733"
     inkscape:cx="69.03427"
     inkscape:cy="26.552951"
     inkscape:document-units="mm"
     inkscape:current-layer="layer1"
     showgrid="false"
     fit-margin-top="0"
     fit-margin-left="0"
     fit-margin-right="0"
     fit-margin-bottom="0"
     units="px"
     inkscape:window-width="1280"
     inkscape:window-height="744"
     inkscape:window-x="-4"
     inkscape:window-y="-4"
     inkscape:window-maximized="1" />
  <metadata
     id="metadata13565">
    <rdf:RDF>
      <cc:Work
         rdf:about="">
        <dc:format>image/svg+xml</dc:format>
        <dc:type
           rdf:resource="http://purl.org/dc/dcmitype/StillImage" />
        <dc:title></dc:title>
      </cc:Work>
    </rdf:RDF>
  </metadata>
  <g
     inkscape:label="Layer 1"
     inkscape:groupmode="layer"
     id="layer1"
     transform="translate(156.6046,-343.38258)">
    <g
       id="g13642"
       transform="translate(0.13229171,-0.13228303)">
      <path
         id="path13572"
         class="a"
         d="m -149.72543,355.31684 v -0.1323 c 0.5027,-0.10583 0.52916,-0.23812 0.52916,-1.00541 v -1.85209 c 0,-0.39687 0,-0.52916 -0.42333,-0.87312 v -0.13229 l 0.84667,-0.42334 0.0794,0.0529 v 3.22792 c 0,0.79375 0.0265,0.87312 0.52917,1.00541 v 0.1323 z"
         inkscape:connector-curvature="0"
         style="fill:#000000;stroke-width:0.26458332" />
      <path
         id="path13574"
         class="a"
         d="m -146.7621,354.17913 c 0,0.79375 0.0265,0.87312 0.47625,1.00541 v 0.1323 h -1.50813 v -0.1323 c 0.47625,-0.10583 0.47625,-0.23812 0.47625,-1.00541 v -1.85209 c 0,-0.39687 0.0265,-0.52916 -0.34395,-0.84666 v -0.10584 l 0.8202,-0.42333 0.0794,0.0265 -0.0529,0.74083 c 0.3175,-0.39687 0.71438,-0.76729 1.13771,-0.76729 0.34396,0 0.71438,0.29104 0.82021,0.76729 0.3175,-0.39687 0.68792,-0.76729 1.13771,-0.76729 1.00541,0 0.89958,1.48167 0.89958,1.98438 v 1.24354 c 0,0.79375 0.0265,0.87312 0.47625,1.00541 v 0.1323 h -1.50812 v -0.1323 c 0.47625,-0.10583 0.47625,-0.23812 0.47625,-1.00541 v -1.03188 c 0,-0.37041 0.10583,-1.71979 -0.7673,-1.71979 -0.29104,0 -0.47625,0.15875 -0.66145,0.44979 v 2.30188 c 0,0.79375 0.0265,0.87312 0.47625,1.00541 v 0.1323 h -1.50813 v -0.1323 c 0.47625,-0.10583 0.47625,-0.23812 0.47625,-1.00541 v -1.03188 c 0,-0.52916 0.0794,-1.71979 -0.76729,-1.71979 -0.29104,0 -0.50271,0.18521 -0.68792,0.47625"
         inkscape:connector-curvature="0"
         style="fill:#000000;stroke-width:0.26458332" />
      <path
         id="path13576"
         class="a"
         d="m -141.0471,351.69204 c 0.21167,-0.21166 0.39687,-0.26458 0.635,-0.26458 0.37042,0 1.16417,0.39688 1.16417,1.87854 0,0.82021 -0.29105,1.85209 -0.9525,1.85209 -0.82021,0 -0.84667,-0.92605 -0.84667,-1.45521 z m 0,3.70417 0.44979,0.0265 c 1.13771,0.0794 1.93146,-1.24354 1.93146,-2.46063 0,-1.05833 -0.52917,-2.03729 -1.29646,-2.03729 -0.39687,0 -0.76729,0.29104 -1.08479,0.58209 l 0.0265,-0.58209 -0.0794,-0.0265 -0.82021,0.4498 v 0.10583 c 0.34396,0.34396 0.34396,0.47625 0.34396,0.89958 v 4.23334 c 0,0.74083 -0.0265,0.84666 -0.50271,0.97895 v 0.1323 h 1.77271 v -0.15875 c -0.71437,-0.10584 -0.76729,-0.18521 -0.76729,-0.97896 v -1.16417 z"
         inkscape:connector-curvature="0"
         style="fill:#000000;stroke-width:0.26458332" />
      <path
         id="path13578"
         class="a"
         d="m -137.29002,354.17913 c 0,0.79375 0.0265,0.87312 0.68792,1.00541 v 0.1323 h -1.71979 v -0.1323 c 0.47625,-0.10583 0.47625,-0.23812 0.50271,-1.00541 v -1.85209 c 0,-0.39687 0,-0.52916 -0.34396,-0.87312 v -0.13229 l 0.82021,-0.42334 0.0794,0.0529 -0.0265,1.16417 h 0.0265 c 0.15875,-0.50271 0.52917,-1.21709 0.9525,-1.21709 0.18521,0 0.34396,0.18521 0.34396,0.4498 0,0.26458 -0.21167,0.47625 -0.34396,0.58208 -0.10583,-0.10583 -0.29104,-0.3175 -0.44979,-0.29104 -0.58208,0.0794 -0.52917,1.40229 -0.52917,1.53458 z"
         inkscape:connector-curvature="0"
         style="fill:#000000;stroke-width:0.26458332" />
      <path
         id="path13580"
         class="a"
         d="m -135.6496,355.31684 v -0.1323 c 0.50271,-0.10583 0.52917,-0.23812 0.52917,-1.00541 v -1.85209 c 0,-0.39687 0.0265,-0.52916 -0.42334,-0.87312 v -0.13229 l 0.87313,-0.42334 0.0794,0.0529 v 3.22792 c 0,0.79375 0.0265,0.87312 0.52917,1.00541 v 0.1323 z m 1.11125,-5.8473 c 0,0.26459 -0.15875,0.47625 -0.34396,0.47625 -0.21167,0 -0.34396,-0.21166 -0.34396,-0.47625 0,-0.26458 0.15875,-0.47625 0.34396,-0.47625 0.18521,0 0.34396,0.21167 0.34396,0.47625 z"
         inkscape:connector-curvature="0"
         style="fill:#000000;stroke-width:0.26458332" />
      <path
         id="path13582"
         class="a"
         d="m -133.18898,352.32704 c 0,-0.39687 0.0265,-0.52916 -0.34395,-0.84666 v -0.10584 l 0.8202,-0.42333 0.0794,0.0265 -0.0529,0.71437 c 0.39688,-0.39687 0.76729,-0.74083 1.19063,-0.74083 0.82021,0 0.84666,0.97896 0.84666,1.53458 v 1.69334 c 0,0.79375 0.0265,0.87312 0.52917,1.00541 v 0.1323 h -1.5875 v -0.1323 c 0.50271,-0.10583 0.52917,-0.23812 0.52917,-1.00541 v -1.11125 c 0,-0.66146 0.0265,-1.64042 -0.79375,-1.64042 -0.29104,0 -0.47625,0.10583 -0.71438,0.39688 v 2.35479 c 0,0.79375 0.0265,0.87312 0.52917,1.00541 v 0.1323 h -1.5875 v -0.1323 c 0.50271,-0.10583 0.52917,-0.23812 0.52917,-1.00541"
         inkscape:connector-curvature="0"
         style="fill:#000000;stroke-width:0.26458332" />
      <path
         id="path13584"
         class="a"
         d="m -128.79689,353.6235 c 0,0.84667 0.0265,1.40229 0.76729,1.40229 0.13229,0 0.26458,-0.0264 0.39687,-0.0794 l 0.0265,0.15875 c -0.34396,0.15875 -0.71437,0.29104 -1.08479,0.29104 -0.66146,0 -0.635,-0.47625 -0.635,-1.24354 v -2.67229 h -0.44979 l -0.0265,-0.0794 0.9525,-1.37583 h 0.0529 v 1.03187 h 1.08479 v 0.39688 h -1.08479 z"
         inkscape:connector-curvature="0"
         style="fill:#000000;stroke-width:0.26458332" />
      <path
         id="path13586"
         class="b"
         d="m -147.84689,349.52246 c 4.84187,-1.34937 9.68375,-2.54 9.68375,-2.54 6.95854,-1.77271 12.14437,-1.64042 12.14437,-1.64042 1.64042,0 2.88396,0.50271 3.12209,1.4023 0.26458,0.97895 0.0794,2.01083 -2.24896,4.36562 l 0.26458,0.13229 c 4.60375,-3.96875 5.02708,-5.23875 4.73604,-6.37646 -0.21166,-0.76729 -1.27,-1.21708 -2.69875,-1.21708 0,0 -4.49791,-0.10583 -10.4775,1.42875 0,0 -10.05416,2.54 -14.52562,3.99521 z"
         inkscape:connector-curvature="0"
         style="fill:#02458b;stroke-width:0.26458332" />
      <path
         id="path13588"
         class="b"
         d="m -126.15106,353.6235 c 0.44979,0 0.82021,-0.34396 0.82021,-0.79375 0,-0.44979 -0.37042,-0.82021 -0.82021,-0.82021 -0.44979,0 -0.82021,0.34396 -0.82021,0.82021 0,0.42334 0.37042,0.79375 0.82021,0.79375 z"
         inkscape:connector-curvature="0"
         style="fill:#02458b;stroke-width:0.26458332" />
      <path
         id="path13590"
         class="b"
         d="m -151.41877,348.17309 -0.60854,-0.0265 -4.57729,4.94771 0.0529,0.26458 h 3.62479 v 0.26458 c 0,1.00542 0,1.40229 -1.32292,1.5875 v 0.15875 h 3.43958 v -0.13229 c -1.1377,-0.18521 -1.03187,-0.58208 -1.03187,-1.5875 v -0.29104 h 1.03187 v -0.66146 h -1.03187 c 0,-0.79375 0.0265,-1.71979 0.0265,-2.35479 l -1.08479,0.37042 v 1.98437 h -2.64584 z"
         inkscape:connector-curvature="0"
         style="fill:#02458b;stroke-width:0.26458332" />
      <path
         id="path13592"
         class="a"
         d="m -148.64064,349.46954 c 0,0.26459 -0.15875,0.47625 -0.34396,0.47625 -0.18521,0 -0.34396,-0.21166 -0.34396,-0.47625 0,-0.26458 0.15875,-0.47625 0.34396,-0.47625 0.21167,0 0.34396,0.21167 0.34396,0.47625 z"
         inkscape:connector-curvature="0"
         style="fill:#000000;stroke-width:0.26458332" />
    </g>
  </g>
  <style
     id="style13570">
  .a{
    fill:#000;
  }
  .b{
    fill:#02458b;
  }
</style>
</svg>
