<?xml version="1.0" encoding="UTF-8" standalone="no"?>
<svg
   xmlns:dc="http://purl.org/dc/elements/1.1/"
   xmlns:cc="http://creativecommons.org/ns#"
   xmlns:rdf="http://www.w3.org/1999/02/22-rdf-syntax-ns#"
   xmlns:svg="http://www.w3.org/2000/svg"
   xmlns="http://www.w3.org/2000/svg"
   xmlns:sodipodi="http://sodipodi.sourceforge.net/DTD/sodipodi-0.dtd"
   xmlns:inkscape="http://www.inkscape.org/namespaces/inkscape"
   id="Layer_1"
   x="0"
   y="0"
   viewBox="0 0 216 216"
   xml:space="preserve"
   version="1.1"
   sodipodi:docname="ai4all.svg"
   inkscape:version="0.92.4 (5da689c313, 2019-01-14)"><metadata
     id="metadata843"><rdf:RDF><cc:Work
         rdf:about=""><dc:format>image/svg+xml</dc:format><dc:type
           rdf:resource="http://purl.org/dc/dcmitype/StillImage" /></cc:Work></rdf:RDF></metadata><defs
     id="defs841" /><sodipodi:namedview
     pagecolor="#ffffff"
     bordercolor="#666666"
     borderopacity="1"
     objecttolerance="10"
     gridtolerance="10"
     guidetolerance="10"
     inkscape:pageopacity="0"
     inkscape:pageshadow="2"
     inkscape:window-width="2560"
     inkscape:window-height="1566"
     id="namedview839"
     showgrid="false"
     inkscape:zoom="1.8713395"
     inkscape:cx="157.86952"
     inkscape:cy="46.705581"
     inkscape:window-x="-11"
     inkscape:window-y="-11"
     inkscape:window-maximized="1"
     inkscape:current-layer="Layer_1" /><style
     id="style830">.st0{fill:#fff}</style><rect
     style="opacity:1;fill:#000000;fill-opacity:1;stroke:#000000;stroke-width:3.77952766;stroke-miterlimit:4;stroke-dasharray:none;stroke-opacity:1"
     id="rect845"
     width="244.21011"
     height="241.00383"
     x="-14.428167"
     y="-11.644423" /><path
     class="st0"
     d="M105.6 128.2H66.1l-25.5 31.4h65zM143.9 165.5V49.6c-6.5-3-13.4-5.2-20.7-6.3v115.4l20.7 6.8zM111.8 42.5c-43.4 0-78.6 36.7-78.6 82 0 3.3.2 6.5.5 9.7l79.8-91.7h-1.7M105.6 79.5l-27.1 33.4h27.1zM181.8 158.9V87.4c-5-10.3-12-19.3-20.5-26.5v110.5l20.5-12.5z"
     id="path832" /><g
     id="g836"><path
       class="st0"
       d="M66.1 128.2l-25.5 31.4"
       opacity=".5"
       id="path834" /></g><rect
     style="opacity:1;fill:#000000;fill-opacity:1;stroke:#000000;stroke-width:3.77952766;stroke-miterlimit:4;stroke-dasharray:none;stroke-opacity:1"
     id="rect847"
     width="5.8781424"
     height="18.70318"
     x="12.290661"
     y="151.87482" /></svg>