<?xml version="1.0" encoding="UTF-8"?>
<svg width="225px" height="34px" viewBox="0 0 225 34" version="1.1" xmlns="http://www.w3.org/2000/svg" xmlns:xlink="http://www.w3.org/1999/xlink">
    <!-- Generator: Sketch 51.3 (57544) - http://www.bohemiancoding.com/sketch -->
    <title>blackrock-logo-site-entry</title>
    <desc>Created with Sketch.</desc>
    <defs></defs>
    <g id="blackrock-logo-site-entry" stroke="none" stroke-width="1" fill="none" fill-rule="evenodd">
        <g id="BlackRock_Wordmark_Blk_RGB" transform="translate(1.000000, 2.000000)" fill="#000000" fill-rule="nonzero">
            <path d="M27.7339768,30.3011583 L27.7339768,8.52651283e-14 L34.6359073,8.52651283e-14 L34.6359073,30.3011583 L27.7339768,30.3011583 Z M161.900772,18.9803089 C161.900772,11.657529 156.219305,7.11235521 149.569884,7.11235521 C142.878378,7.11235521 137.238996,11.6996139 137.238996,18.9803089 C137.238996,26.3030888 142.920463,30.8903475 149.569884,30.8903475 C156.219305,30.8903475 161.900772,26.2610039 161.900772,18.9803089 Z M155.083012,18.9803089 C155.083012,22.8100386 152.51583,24.9563707 149.527799,24.9563707 C146.539768,24.9563707 143.972587,22.8100386 143.972587,18.9803089 C143.972587,15.1084942 146.539768,13.046332 149.527799,13.046332 C152.51583,13.046332 155.083012,15.1084942 155.083012,18.9803089 Z M24.9563707,21.5895753 C24.9563707,18.180695 23.1888031,15.5714286 20.0324324,14.3930502 C23.0204633,12.7517375 24.0725869,10.6054054 24.0725869,8.08030888 C24.0725869,3.66138996 20.8741313,9.10174713e-14 13.7196911,0.0420849421 L1.13686838e-13,0.0420849421 L1.13686838e-13,30.3432432 L14.3088803,30.3432432 C21.5054054,30.3011583 24.9563707,26.7239382 24.9563707,21.5895753 Z M16.7498069,8.96409266 C16.7498069,11.0262548 15.4451737,12.2046332 12.9200772,12.2046332 L7.1965251,12.2046332 L7.1965251,5.89189189 L12.9200772,5.89189189 C15.234749,5.89189189 16.7498069,6.9019305 16.7498069,8.96409266 Z M17.3810811,21.1266409 C17.3810811,23.1046332 15.992278,24.4092664 13.4250965,24.4092664 L7.1965251,24.4092664 L7.1965251,17.8440154 L13.4250965,17.8440154 C15.9081081,17.8440154 17.3810811,19.1065637 17.3810811,21.1266409 Z M85.053668,13.2988417 C83.1598456,9.34285714 79.6247104,7.15444015 74.2799228,7.15444015 C67.9671815,7.15444015 62.3277992,11.1104247 62.3277992,18.9803089 C62.3277992,26.6397683 67.2938224,30.8903475 74.1957529,30.8903475 C79.0355212,30.8903475 83.1177606,28.9544402 85.053668,24.7880309 L79.4984556,21.9262548 C78.488417,23.7779923 76.9312741,24.9563707 74.4482625,24.9563707 C71.2498069,24.9563707 69.1876448,22.6837838 69.1876448,18.9803089 C69.1876448,15.276834 71.5444015,13.046332 74.4061776,13.046332 C76.6366795,13.046332 78.3200772,14.0563707 79.3722008,16.2447876 L85.053668,13.2988417 Z M186.772973,13.2988417 C184.879151,9.34285714 181.344015,7.15444015 175.999228,7.15444015 C169.686486,7.15444015 164.047104,11.1104247 164.047104,18.9803089 C164.047104,26.6397683 169.013127,30.8903475 175.915058,30.8903475 C180.754826,30.8903475 184.837066,28.9544402 186.772973,24.7880309 L181.217761,21.9262548 C180.207722,23.7779923 178.650579,24.9563707 176.167568,24.9563707 C172.969112,24.9563707 170.90695,22.6837838 170.90695,18.9803089 C170.90695,15.276834 173.263707,13.046332 176.125483,13.046332 C178.355985,13.046332 180.039382,14.0563707 181.091506,16.2447876 L186.772973,13.2988417 Z M128.906178,30.3011583 L123.140541,20.1166023 L118.721622,20.1166023 L118.721622,30.3011583 L111.609266,30.3011583 L111.609266,8.52651283e-14 L124.445174,8.52651283e-14 C131.389189,8.52651283e-14 136.228958,3.32471042 136.228958,9.84787645 C136.228958,14.0142857 134.166795,16.9602317 130.505405,18.7698842 L137.154826,30.3011583 L128.906178,30.3011583 Z M118.763707,14.0984556 L124.066409,14.0984556 C127.349035,14.0984556 128.948263,12.2467181 128.948263,10.0583012 C128.948263,7.44903475 127.433205,6.01814672 124.066409,6.01814672 L118.763707,6.01814672 L118.763707,14.0984556 Z M61.1915058,29.9223938 L61.1915058,25.1667954 C60.8969112,25.2509653 60.4760618,25.3351351 60.0131274,25.3351351 C59.1293436,25.3351351 58.6664093,24.8722008 58.6664093,24.0725869 L58.6664093,16.2027027 C58.6664093,10.3108108 54.7104247,7.1965251 48.1872587,7.1965251 C43.9366795,7.1965251 40.3173745,8.75366795 38.0447876,10.7737452 L41.8745174,15.0664093 C43.3895753,13.7196911 45.4096525,12.8779923 47.3876448,12.8779923 C50.4177606,12.8779923 51.8486486,14.3930502 51.8486486,16.8760618 L51.8486486,17.5915058 C50.4177606,17.2548263 48.6081081,16.9181467 46.4196911,16.9181467 C40.9065637,16.9181467 37.3293436,19.5694981 37.3293436,23.946332 C37.3293436,28.4494208 40.3173745,30.8061776 44.9467181,30.8061776 C48.1030888,30.8061776 50.9227799,29.5015444 52.3957529,27.8181467 C53.2795367,30.0486486 55.215444,30.6378378 57.1092664,30.6378378 C58.4138996,30.6799228 59.9289575,30.4694981 61.1915058,29.9223938 Z M51.8907336,22.8100386 C51.8907336,24.8722008 49.9127413,26.2189189 47.6401544,26.2189189 C45.4938224,26.2189189 44.4416988,25.1247104 44.4416988,23.6096525 C44.4416988,22.0104247 45.6200772,20.8320463 48.0189189,20.8320463 C49.4918919,20.8320463 50.7965251,21.084556 51.8907336,21.3370656 L51.8907336,22.8100386 Z M211.434749,30.3011583 L203.312355,16.2027027 L210.92973,7.91196911 L203.27027,7.91196911 L195.232046,16.8339768 L195.232046,0.0420849421 L188.372201,0.0420849421 L188.372201,30.3432432 L195.232046,30.3432432 L195.232046,24.8722008 L198.514672,21.3791506 L203.649035,30.3432432 L211.434749,30.3432432 L211.434749,30.3011583 Z M109.799614,30.3011583 L101.67722,16.2027027 L109.294595,7.91196911 L101.550965,7.91196911 L93.5969112,16.8339768 L93.5969112,0.0420849421 L86.7370656,0.0420849421 L86.7370656,30.3432432 L93.5969112,30.3432432 L93.5969112,24.8722008 L96.8795367,21.3791506 L102.0139,30.3432432 L109.799614,30.3432432 L109.799614,30.3011583 Z M215.643243,26.0926641 C217.074131,26.0926641 217.91583,26.9764479 217.91583,28.323166 C217.91583,29.6698842 217.074131,30.553668 215.643243,30.553668 C214.212355,30.553668 213.370656,29.6698842 213.370656,28.323166 C213.370656,26.9764479 214.212355,26.0926641 215.643243,26.0926641 Z M215.643243,30.2590734 C216.779537,30.2590734 217.537066,29.5857143 217.537066,28.323166 C217.537066,27.0606178 216.737452,26.3872587 215.643243,26.3872587 C214.50695,26.3872587 213.749421,27.0606178 213.749421,28.323166 C213.707336,29.6277992 214.50695,30.2590734 215.643243,30.2590734 Z M214.759459,27.1868726 L215.685328,27.1868726 C216.232432,27.1868726 216.527027,27.4814672 216.527027,27.9023166 C216.527027,28.2810811 216.358687,28.4915058 216.064093,28.6177606 L216.484942,29.4173745 L216.064093,29.4173745 L215.685328,28.7019305 L215.180309,28.7019305 L215.180309,29.4173745 L214.759459,29.4173745 L214.759459,27.1868726 Z M215.180309,27.5235521 L215.180309,28.323166 L215.643243,28.323166 C215.937838,28.323166 216.106178,28.2389961 216.106178,27.9444015 C216.106178,27.6918919 215.979923,27.5656371 215.685328,27.5656371 L215.180309,27.5656371 L215.180309,27.5235521 Z" id="Shape"></path>
        </g>
    </g>
</svg>